<svg id="Layer_1" data-name="Layer 1" xmlns="http://www.w3.org/2000/svg" viewBox="0 0 519.6 104.1"><defs><style>.cls-1{fill:#fff;}</style></defs><title>logo_infusion</title><g id="Layer_1-2" data-name="Layer 1"><path class="cls-1" d="M376.9,346.7h-17v-11h17v11Zm-17,7.6h17v61.9h-17V354.3Z" transform="translate(-254.6 -314.2)"/><path class="cls-1" d="M385.3,354.3h16.2v8.6h0.4a22.12,22.12,0,0,1,18.9-10.3c18.1,0,22.6,10.2,22.6,25.5v38.1h-17v-35c0-10.2-3-15.2-10.9-15.2-9.2,0-13.2,5.1-13.2,17.7v32.5h-17V354.3Z" transform="translate(-254.6 -314.2)"/><path class="cls-1" d="M455,365.6H444.8V354.2H455v-4.8c0-10.9,6.8-18.8,20.7-18.8,3,0,6.1.4,9,.5v12.7c-2-.2-4.1-0.4-6.2-0.4-4.6,0-6.5,1.9-6.5,7.1v3.7h11.7v11.4H472v50.6H455V365.6Z" transform="translate(-254.6 -314.2)"/><path class="cls-1" d="M545.3,416.2H529.1v-8.6h-0.4a22.12,22.12,0,0,1-18.9,10.3c-18.1,0-22.6-10.2-22.6-25.5V354.3h17v35c0,10.2,3,15.2,10.9,15.2,9.2,0,13.2-5.1,13.2-17.7V354.3h17v61.9Z" transform="translate(-254.6 -314.2)"/><path class="cls-1" d="M565.4,396.1c0.1,7.4,6.3,10.4,13.1,10.4,4.9,0,11.1-1.9,11.1-7.9,0-5.2-7.1-6.9-19.3-9.6-9.8-2.2-19.6-5.6-19.6-16.5,0-15.8,13.7-19.9,27-19.9,13.5,0,26,4.6,27.3,19.8H588.8c-0.5-6.6-5.5-8.4-11.6-8.4-3.8,0-9.5.7-9.5,5.7,0,6.1,9.6,6.9,19.3,9.2,9.9,2.3,19.6,5.9,19.6,17.4,0,16.3-14.1,21.6-28.3,21.6-14.4,0-28.4-5.4-29.1-21.8h16.2Z" transform="translate(-254.6 -314.2)"/><path class="cls-1" d="M627.1,346.7h-17v-11h17v11Zm-17,7.6h17v61.9h-17V354.3Z" transform="translate(-254.6 -314.2)"/><path class="cls-1" d="M663.4,352.6c19.5,0,32.1,12.9,32.1,32.7,0,19.6-12.6,32.6-32.1,32.6s-32-12.9-32-32.6S644,352.6,663.4,352.6Zm0,52.4c11.6,0,15.1-9.9,15.1-19.8s-3.5-19.9-15.1-19.9-15,9.9-15,19.9S651.9,405,663.4,405Z" transform="translate(-254.6 -314.2)"/><path class="cls-1" d="M699,354.3h16.2v8.6h0.4a22.12,22.12,0,0,1,18.9-10.3c18.1,0,22.6,10.2,22.6,25.5v38.1h-17v-35c0-10.2-3-15.2-10.9-15.2-9.2,0-13.2,5.1-13.2,17.7v32.5H699V354.3Z" transform="translate(-254.6 -314.2)"/><path class="cls-1" d="M287.9,418.3a33.25,33.25,0,0,1-33.2-33.2h0v-31a8,8,0,0,1,8-8h8v39a17.2,17.2,0,0,0,17.2,17.2h21.7a17.2,17.2,0,0,0,17.2-17.2h0V363.4a17.2,17.2,0,0,0-17.2-17.2h-39v-16h39a33.25,33.25,0,0,1,33.2,33.2h0v21.7a33.25,33.25,0,0,1-33.2,33.2H287.9Z" transform="translate(-254.6 -314.2)"/><path class="cls-1" d="M254.6,322.2a8,8,0,0,1,16-.1h0v8.1h-8.1A8.07,8.07,0,0,1,254.6,322.2Z" transform="translate(-254.6 -314.2)"/><path class="cls-1" d="M774.2,338a8.3,8.3,0,1,1-8.3-8.3A8.28,8.28,0,0,1,774.2,338Zm-15.3,0a7,7,0,1,0,7-7A7,7,0,0,0,758.9,338Zm3.8-4.6h3.2c1.1,0,3.3,0,3.3,2.5a2.15,2.15,0,0,1-1.8,2.3c1.3,0.1,1.4.9,1.5,2.1a9.23,9.23,0,0,0,.5,2.5h-2c0-.4-0.4-2.8-0.4-2.9a0.85,0.85,0,0,0-1-.8h-1.6v3.7h-1.8v-9.4h0.1Zm1.8,4.1H766a1.22,1.22,0,0,0,1.4-1.3,1.16,1.16,0,0,0-1.4-1.3h-1.5v2.6Z" transform="translate(-254.6 -314.2)"/></g></svg>