<?xml version="1.0" encoding="iso-8859-1"?>
<!-- Generator: Adobe Illustrator 19.0.0, SVG Export Plug-In . SVG Version: 6.00 Build 0)  -->
<svg version="1.1" id="Layer_1" xmlns="http://www.w3.org/2000/svg" xmlns:xlink="http://www.w3.org/1999/xlink" x="0px" y="0px"
	 viewBox="0 0 503.467 503.467" xml:space="preserve">
<g transform="translate(5 1)">
	<g>
		<path style="fill:#FFD0A1;" d="M169.507,447h68.267c-18.773,0-34.133,6.827-34.133,25.6c0,2.56,0.853,5.973,1.707,8.533h-1.707
			c-8.533,17.067-25.6,17.067-25.6,17.067h-8.533c-18.773,0-34.133-10.24-34.133-25.6C135.374,453.827,150.733,447,169.507,447z
			 M203.64,324.12c0,0,6.827,0.853,17.067,2.56v2.56c8.533,17.92,12.8,41.813,12.8,41.813c4.267,32.427,4.267,76.8,4.267,76.8
			h-68.267c0,0-17.067-25.6-17.067-76.8c0-14.507,4.267-25.6,10.24-34.133c0,0,6.827-8.533,23.893-17.067l0.853-1.707
			C192.547,319.854,198.52,321.56,203.64,324.12z"/>
		<path style="fill:#FFD0A1;" d="M245.454,327.534v-3.413c7.68,6.827,18.773,11.947,34.987,11.947V447h-42.667
			c0,0,0-44.373-4.267-76.8c0,0-3.413-23.893-12.8-41.813v-2.56C227.534,326.68,236.067,327.534,245.454,327.534z M280.44,464.067
			c0,18.773-15.36,34.133-34.133,34.133h-8.533c-15.36,0-28.16-6.827-32.427-17.067c-0.853-2.56-1.707-5.12-1.707-8.533
			c0-18.773,15.36-25.6,34.133-25.6h42.667V464.067z"/>
		<path style="fill:#FFD0A1;" d="M183.16,30.574c28.16-17.92,62.293-27.307,97.28-27.307V37.4c-18.773,0-35.84,5.12-51.2,13.653
			c0,0-42.667,23.893-68.267,63.147c0,0-17.067,25.6-17.067,59.733s25.6,76.8,68.267,93.867c0,17.067,7.68,26.453,17.067,30.72
			v0.853c0,0,3.413,14.507,16.213,25.6v3.413c-9.387,0-17.92-0.853-24.747-0.853c-11.093-0.853-17.067-2.56-17.067-2.56
			c-5.12-1.707-11.093-4.267-16.213-6.827c-5.973-3.413-11.947-6.827-17.92-10.24v-31.573l-18.773,15.36
			c-25.6-25.6-40.96-64-40.96-117.76c0-34.133,7.68-64,21.333-88.747c-17.067-5.12-29.867-20.48-29.867-39.253
			c0-23.893,18.773-42.667,42.667-42.667C161.827,3.267,177.187,14.36,183.16,30.574z M339.32,326.68
			c-6.827,0.853-14.507,0.853-23.893,0.853v-3.413c12.8-11.093,16.213-25.6,16.213-25.6v-0.853
			c10.24-4.267,17.067-13.653,17.067-30.72c42.667-17.067,68.267-59.733,68.267-93.867s-17.067-59.733-17.067-59.733
			C376.867,74.947,331.64,50.2,331.64,50.2c-15.36-8.533-32.427-13.653-51.2-13.653V2.414c34.987,0,69.12,9.387,96.427,26.453
			l0.853-0.853C383.694,11.8,399.054,1.56,416.974,1.56c23.893,0,42.667,18.773,42.667,42.667c0,19.627-11.947,34.987-29.867,40.107
			c13.653,23.893,21.333,53.76,21.333,87.893c0,53.76-15.36,92.16-40.96,117.76l-18.773-15.36v30.72
			c-5.973,3.413-11.947,7.68-17.92,10.24c-5.12,2.56-11.093,5.12-16.213,6.827C357.24,324.12,350.414,325.827,339.32,326.68z"/>
	</g>
	<path style="fill:#F2EDDA;" d="M229.24,298.52c5.12,2.56,11.093,3.413,17.067,3.413c25.6,0,34.133-25.6,34.133-34.133
		c0,8.533,8.533,34.133,34.133,34.133c5.973,0,11.947-0.853,17.067-3.413v0.853c0,0-3.413,14.507-16.213,25.6
		c-7.68,6.827-18.773,11.947-34.987,11.947c-16.213,0-27.307-5.12-34.987-11.947C232.654,313.88,229.24,299.374,229.24,298.52
		L229.24,298.52z M143.907,173.934c0-34.133,17.067-59.733,17.067-59.733c25.6-39.253,68.267-63.147,68.267-63.147
		C244.6,42.52,261.667,37.4,280.44,37.4s35.84,5.12,51.2,13.653c0,0,45.227,24.747,68.267,63.147c0,0,17.067,25.6,17.067,59.733
		s-25.6,76.8-68.267,93.867c0,17.067-7.68,26.453-17.067,30.72c-5.12,2.56-11.093,3.413-17.067,3.413
		c-25.6,0-34.133-25.6-34.133-34.133c0,8.533-8.533,34.133-34.133,34.133c-5.973,0-11.947-0.853-17.067-3.413
		c-10.24-4.267-17.067-13.653-17.067-30.72C169.507,250.734,143.907,208.067,143.907,173.934z"/>
	<g>
		<path style="fill:#FFD0A1;" d="M323.107,447H280.44v17.067c0,18.773,15.36,34.133,34.133,34.133h8.533
			c15.36,0,28.16-6.827,32.427-17.067c0.853-2.56,1.707-5.12,1.707-8.533C357.24,453.827,341.88,447,323.107,447
			c0,0,0-44.373,4.267-76.8c0,0,4.267-25.6,11.947-42.667v-1.707c-6.827,0.853-14.507,0.853-23.893,0.853v-3.413
			c-7.68,6.827-18.773,11.947-34.987,11.947v110.933h42.667C323.107,447,323.107,447,323.107,447L323.107,447z"/>
		<path style="fill:#FFD0A1;" d="M391.374,447c0,0,17.067-25.6,17.067-76.8c0-14.507-4.267-25.6-10.24-34.133
			c0,0-6.827-8.533-23.893-17.067l-0.853-1.707c-5.12,2.56-11.093,5.12-16.213,6.827c0,0-6.827,1.707-17.92,2.56v1.707
			c-7.68,17.067-11.947,42.667-11.947,42.667c-4.267,32.427-4.267,76.8-4.267,76.8L391.374,447L391.374,447h-68.267
			c18.773,0,34.133,6.827,34.133,25.6c0,2.56-0.853,5.973-1.707,8.533h1.707c8.533,17.067,25.6,17.067,25.6,17.067h8.533
			c18.773,0,34.133-10.24,34.133-25.6C425.507,453.827,410.147,447,391.374,447L391.374,447z"/>
		<path style="fill:#FFD0A1;" d="M58.574,259.267v17.067c0,0,0,17.067-17.067,17.067S32.974,259.267,58.574,259.267"/>
	</g>
	<path style="fill:#AE938D;" d="M306.04,239.64l0.853,2.56c0,9.387-11.093,25.6-25.6,25.6c-14.507,0-25.6-16.213-25.6-25.6
		l0.853-2.56v-0.853c2.56-5.973,12.8-5.973,24.747-5.973S303.48,233.667,306.04,239.64L306.04,239.64z"/>
</g>
<path style="fill:#51565F;" d="M396.374,503.467h-8.533c-2.56,0-4.267-1.707-4.267-4.267s1.707-4.267,4.267-4.267h8.533
	c14.507,0,29.867-7.68,29.867-21.333c0-14.507-10.24-21.333-29.867-21.333c-1.707,0-3.413-0.853-3.413-2.56
	c-0.853-1.707-0.853-3.413,0-4.267c0,0,16.213-25.6,16.213-74.24c0-11.947-3.413-23.04-9.387-31.573
	c-1.707-1.707-0.853-4.267,0.853-5.973c1.707-1.707,4.267-0.853,5.973,0.853c6.827,10.24,11.093,22.187,11.093,36.693
	c0,38.4-9.387,62.293-14.507,72.533c19.627,1.707,31.573,12.8,31.573,29.867C434.774,490.667,418.56,503.467,396.374,503.467z
	 M328.107,503.467h-8.533c-14.507,0-28.16-8.533-34.133-20.48c-5.973,11.947-19.627,20.48-34.133,20.48h-8.533
	c-22.187,0-38.4-12.8-38.4-29.867c0-17.92,11.947-28.16,34.133-29.867c0-11.947-0.853-46.08-4.267-71.68
	c0-2.56,1.707-4.267,3.413-5.12c2.56,0,4.267,1.707,5.12,3.413c3.413,26.453,4.267,61.44,4.267,73.387h4.267
	c2.56,0,4.267,1.707,4.267,4.267c0,2.56-1.707,4.267-4.267,4.267h-8.533c-19.627,0-29.867,6.827-29.867,21.333
	c0,13.653,15.36,21.333,29.867,21.333h8.533c16.213,0,29.867-13.653,29.867-29.867v-85.333c0-2.56,1.707-4.267,4.267-4.267
	s4.267,1.707,4.267,4.267v85.333c0,16.213,13.653,29.867,29.867,29.867h8.533c14.507,0,29.867-7.68,29.867-21.333
	c0-14.507-10.24-21.333-29.867-21.333h-8.533c-2.56,0-4.267-1.707-4.267-4.267c0-2.56,1.707-4.267,4.267-4.267h4.267
	c0-11.947,0.853-46.08,4.267-73.387c0-2.56,2.56-4.267,5.12-3.413c2.56,0,4.267,2.56,3.413,5.12
	c-3.413,26.453-4.267,60.587-4.267,71.68c21.333,0.853,34.133,11.947,34.133,29.867
	C366.507,490.667,350.294,503.467,328.107,503.467z M183.04,503.467h-8.533c-22.187,0-38.4-12.8-38.4-29.867
	c0-17.067,11.093-27.307,31.573-29.867c-4.267-9.387-11.947-29.867-13.653-60.587c-7.68-1.707-25.6-7.68-39.253-25.6
	C100.267,337.92,96,310.614,102.827,276.48c2.56-16.213-5.12-24.747-13.653-26.453c-7.68-1.707-17.067,0.853-20.48,11.093v16.213
	c0,7.68-4.267,21.333-21.333,21.333c-5.12,0-8.533-2.56-10.24-4.267c-1.707-2.56-3.413-5.973-3.413-9.387
	c0-11.093,9.387-26.453,27.307-28.16c5.973-12.8,18.773-17.067,29.867-14.507c12.8,3.413,23.04,15.36,19.627,36.693
	c-5.973,31.573-2.56,57.173,10.24,74.24c10.24,14.507,24.747,19.627,32.427,22.187c0-0.853,0-2.56,0-3.413
	c0-13.653,3.413-26.453,11.093-36.693c1.707-1.707,4.267-2.56,5.973-0.853c1.707,1.707,2.56,4.267,0.853,5.973
	c-5.973,8.533-9.387,19.627-9.387,31.573c0,49.493,16.213,74.24,16.213,74.24c0.853,1.707,0.853,3.413,0,4.267
	c-0.853,0.853-2.56,2.56-3.413,2.56c-19.627,0-29.867,6.827-29.867,21.333c0,13.653,15.36,21.333,29.867,21.333h8.533
	c2.56,0,4.267,1.707,4.267,4.267C187.307,502.614,185.6,503.467,183.04,503.467z M59.307,264.534
	c-11.947,2.56-17.067,12.8-17.067,19.627c0,1.707,0,3.413,0.853,4.267c0,0,0.853,1.707,3.413,1.707c11.947,0,12.8-11.093,12.8-12.8
	V264.534z M285.44,341.334c-40.107,0-52.907-31.573-54.613-38.4c-10.24-5.973-17.067-16.213-17.92-30.72
	c-44.373-18.773-68.267-64-68.267-96.427c0-34.987,17.067-60.587,17.92-62.293c1.707-1.707,4.267-2.56,5.973-0.853
	c1.707,1.707,2.56,4.267,0.853,5.973c0,0-16.213,24.747-16.213,57.173c0,29.867,21.333,69.12,59.733,87.893
	c1.707-14.507,9.387-22.187,9.387-22.187c1.707-1.707,4.267-1.707,5.973,0c1.707,1.707,1.707,4.267,0,5.973l0,0
	c0,0-7.68,7.68-7.68,22.187l0,0c0,25.6,18.773,29.867,29.867,29.867c19.627,0,27.307-17.067,29.013-26.453
	c-14.507-2.56-24.747-18.773-24.747-29.013l0,0l0,0c0-1.707,0-2.56,0.853-4.267l7.68-47.787c0-2.56,2.56-4.267,5.12-3.413
	c1.707,0,3.413,2.56,3.413,4.267v0.853l-6.827,39.253c5.12-1.707,12.8-1.707,19.627-1.707s13.653,0,19.627,1.707l-6.827-39.253
	v-0.853c0-1.707,1.707-4.267,3.413-4.267c2.56,0,4.267,0.853,5.12,3.413l7.68,47.787c0,0.853,0.853,2.56,0.853,4.267l0,0l0,0
	c0,10.24-11.093,26.453-24.747,29.013c1.707,9.387,10.24,26.453,29.013,26.453c11.093,0,29.867-4.267,29.867-29.867l0,0
	c0-14.507-6.827-22.187-7.68-22.187c-1.707-1.707-1.707-4.267,0-5.973s4.267-1.707,5.973,0c0,0,7.68,7.68,9.387,22.187
	C395.52,245.76,416,205.654,416,175.787c0-32.427-16.213-57.173-16.213-57.173c-1.707-1.707-0.853-4.267,0.853-5.973
	c1.707-1.707,4.267-0.853,5.973,0.853c0.853,0.853,17.92,27.307,17.92,62.293c0,33.28-23.893,77.653-68.267,96.427
	c-0.853,14.507-6.827,24.747-17.92,30.72C338.347,309.76,325.547,341.334,285.44,341.334z M241.067,306.347
	c4.267,10.24,17.067,26.453,44.373,26.453s40.107-17.067,44.373-26.453c-3.413,0.853-6.827,0.853-10.24,0.853
	c-18.773,0-29.013-11.093-34.133-22.187c-5.12,11.093-15.36,22.187-34.133,22.187C247.894,307.2,244.48,307.2,241.067,306.347z
	 M264.107,243.2c0,7.68,10.24,21.333,21.333,21.333s21.333-13.653,21.333-21.333v-1.707c-1.707-2.56-9.387-3.413-21.333-3.413
	s-19.627,0-21.333,3.413V243.2z M362.24,329.387c-1.707,0-3.413-0.853-4.267-2.56c-0.853-2.56,0-4.267,2.56-5.12
	c11.093-4.267,22.187-9.387,31.573-15.36v-29.014c0-1.707,0.853-3.413,2.56-4.267c1.707-0.853,3.413-0.853,4.267,0.853l15.36,12.8
	c24.747-26.453,37.547-64,37.547-111.787c0-32.427-6.827-61.44-20.48-86.187c-0.853-0.853-0.853-2.56,0-3.413
	c0.853-0.853,1.707-1.707,2.56-2.56c16.213-5.12,26.453-18.773,26.453-35.84c0-21.333-17.067-38.4-38.4-38.4
	c-15.36,0-28.16,7.68-34.133,21.333c11.947,7.68,23.04,17.067,32.427,28.16c1.707,1.707,1.707,4.267-0.853,5.973
	c-1.707,1.707-4.267,1.707-5.973-0.853C384.427,29.014,339.2,9.387,289.707,8.534v25.6c17.067,0.853,34.133,5.973,49.493,14.507
	c1.707,0.853,2.56,3.413,1.707,5.973c-0.853,1.707-3.413,2.56-5.973,1.707c-13.653-7.68-29.013-11.947-45.227-12.8v17.067
	c11.093,0.853,22.187,3.413,31.573,8.533c1.707,0.853,2.56,3.413,1.707,5.973c-0.853,1.707-3.413,2.56-5.973,1.707
	c-8.533-4.267-17.92-6.827-28.16-7.68v29.867c0,2.56-1.707,4.267-4.267,4.267s-4.267-1.707-4.267-4.267V69.121
	c-10.24,0.853-19.627,3.413-28.16,7.68c-1.707,0.853-4.267,0-5.973-1.707c-1.707-1.707,0-4.267,1.707-5.973
	c10.24-5.12,20.48-7.68,32.427-8.533V43.521c-15.36,0.853-31.573,5.12-45.227,12.8c-1.707,0.853-4.267,0.853-5.973-1.707
	c-0.853-1.707-0.853-4.267,1.707-5.973c14.507-8.533,31.573-13.653,49.493-14.507v-25.6c-32.427,0.853-63.147,9.387-88.747,25.6
	c-0.853,0.853-0.853,1.707-2.56,1.707h-0.853c-11.947,7.68-22.187,16.213-30.72,27.307c-1.707,1.707-4.267,1.707-5.973,0
	c-1.707-1.707-1.707-4.267,0-5.973c9.387-10.24,19.627-19.627,31.573-27.307c-6.827-12.8-19.627-21.333-34.133-21.333
	c-21.333,0-38.4,17.067-38.4,38.4c0,16.213,10.24,30.72,26.453,35.84c0.853,0,2.56,1.707,2.56,2.56c0.853,0.853,0,2.56,0,3.413
	c-13.653,24.747-20.48,53.76-20.48,86.187c0,47.787,12.8,85.333,37.547,111.787l15.36-12.8c1.707-0.853,3.413-0.853,4.267-0.853
	c1.707,0.853,2.56,2.56,2.56,4.267v28.16c9.387,5.973,19.627,11.093,31.573,15.36c2.56,0.853,3.413,3.413,2.56,5.12
	c-0.853,2.56-3.413,3.413-5.12,2.56c-12.8-4.267-24.747-10.24-34.987-17.92c-0.853-0.853-1.707-1.707-1.707-3.413v-21.333
	L160,295.253c-1.707,1.707-4.267,1.707-5.973,0c-28.16-28.16-42.667-69.12-42.667-120.32c0-31.573,6.827-60.587,19.627-86.187
	c-17.067-7.68-28.16-23.04-28.16-41.813C102.827,21.333,124.16,0,149.76,0c17.92,0,33.28,9.387,41.813,25.6
	C218.88,9.387,252.16,0,286.293,0c34.987,0,67.413,8.533,94.72,24.747C388.693,9.387,404.053,0,422.827,0
	c25.6,0,46.933,21.333,46.933,46.933c0,18.773-11.093,34.987-28.16,42.667c12.8,24.747,19.627,53.76,19.627,85.333
	c0,52.053-14.507,92.16-42.667,120.32c-1.707,1.707-4.267,1.707-5.973,0l-11.093-9.387V307.2c0,1.707-0.853,2.56-1.707,3.413
	c-10.24,6.827-22.187,12.8-34.987,17.92C363.094,329.387,363.094,329.387,362.24,329.387z M362.24,221.867
	c-1.707,0-2.56-0.853-3.413-2.56c-0.853-1.707-0.853-4.267,1.707-5.973c19.627-11.093,23.893-30.72,23.893-31.573
	c0-2.56,2.56-4.267,5.12-3.413c2.56,0,4.267,2.56,3.413,5.12c0,0.853-4.267,23.893-27.307,36.693
	C363.947,221.867,363.094,221.867,362.24,221.867z M208.64,221.867c-0.853,0-1.707,0-1.707-0.853
	c-23.04-13.653-27.307-35.84-27.307-36.693c0-2.56,0.853-4.267,3.413-5.12c2.56,0,4.267,0.853,5.12,3.413
	c0,0,3.413,19.627,23.893,31.573c1.707,0.853,2.56,3.413,1.707,5.973C211.2,221.014,210.347,221.867,208.64,221.867z
	 M349.44,170.667c-5.12,0-8.533-3.413-8.533-8.533s3.413-8.533,8.533-8.533s8.533,3.413,8.533,8.533S354.56,170.667,349.44,170.667z
	 M221.44,170.667c-5.12,0-8.533-3.413-8.533-8.533s3.413-8.533,8.533-8.533s8.533,3.413,8.533,8.533S226.56,170.667,221.44,170.667z
	 M285.44,153.6c-1.707,0-3.413-0.853-3.413-2.56c-8.533-17.067-16.213-23.04-30.72-23.04c-2.56,0-4.267-1.707-4.267-4.267
	c0-2.56,1.707-4.267,4.267-4.267c17.067,0,26.453,7.68,34.133,21.333c7.68-12.8,17.067-21.333,34.133-21.333
	c2.56,0,4.267,1.707,4.267,4.267c0,2.56-1.707,4.267-4.267,4.267c-13.653,0-21.333,5.973-30.72,23.04
	C288.854,152.747,287.147,153.6,285.44,153.6z"/>

</svg>
