<svg id="Capa_1" enable-background="new 0 0 512 512" height="512" viewBox="0 0 512 512" width="512" xmlns="http://www.w3.org/2000/svg"><path d="m311.039 105.433 89.984 59.99 110.977 17.8v-122.973h-71.749l-90.375-44.621h-349.876v58.7l130.597 13.06-31.679 33.483h-53.793v30h66.708l56.494-59.71 72.673 7.267v66.692h-30.185c-24.882 0-45.125 20.243-45.125 45.125v15.125h-.065c-24.882 0-45.125 20.243-45.125 45.125v15.125h-.065c-24.882 0-45.125 20.243-45.125 45.125s20.243 45.125 45.125 45.125h.065v15.125c0 24.882 20.243 45.125 45.125 45.125h.065v15.125c0 24.882 20.243 45.125 45.125 45.125h90.37c24.882 0 45.125-20.243 45.125-45.125v-15.125h.065c24.882 0 45.125-20.243 45.125-45.125v-15.125h.065c24.882 0 45.125-20.243 45.125-45.125s-20.243-45.125-45.125-45.125h-.065v-15.125c0-24.882-20.243-45.125-45.125-45.125h-.065v-15.125c0-24.882-20.243-45.125-45.125-45.125h-30.185v-63.692zm-190.604 240.438c-8.34 0-15.125-6.785-15.125-15.125s6.785-15.125 15.125-15.125h.065 77.036c-2.194 8.459-2.754 19.868 0 30.25h-77.036zm165.948-15.125c0 16.753-13.63 30.383-30.383 30.383s-30.383-13.63-30.383-30.383 13.63-30.383 30.383-30.383 30.383 13.63 30.383 30.383zm29.927 120.5c0 8.34-6.785 15.125-15.125 15.125h-90.37c-8.34 0-15.125-6.785-15.125-15.125v-15.125h120.62zm45.19-60.25c0 8.34-6.785 15.125-15.125 15.125h-.065-180.62-.065c-8.34 0-15.125-6.785-15.125-15.125v-15.125h65.437c10.668 9.482 24.701 15.258 40.063 15.258s29.395-5.776 40.063-15.258h65.437zm30.065-75.375c8.34 0 15.125 6.785 15.125 15.125s-6.785 15.125-15.125 15.125h-.065-77.036c2.194-8.459 2.754-19.868 0-30.25h77.036zm-45.19-60.25c8.34 0 15.125 6.785 15.125 15.125v15.125h-65.437c-10.668-9.482-24.701-15.258-40.063-15.258s-29.395 5.776-40.063 15.258h-65.437v-15.125c0-8.34 6.785-15.125 15.125-15.125h.065 180.62zm-30.065-45.125v15.125h-120.62v-15.125c0-8.34 6.785-15.125 15.125-15.125h90.37c8.34 0 15.125 6.785 15.125 15.125zm-286.31-164.617h312.874l90.375 44.621h48.751v57.777l-69.773-11.191-90.766-60.511-291.461-29.146z"/></svg>