<svg id="Capa_1" enable-background="new 0 0 512 512" height="512" viewBox="0 0 512 512" width="512" xmlns="http://www.w3.org/2000/svg"><g><path d="m210.875 241h30v90.25h-30z"/><path d="m271.125 241h30v90.25h-30z"/><path d="m135.5 241c-24.882 0-45.125 20.243-45.125 45.125s20.243 45.125 45.125 45.125 45.125-20.243 45.125-45.125-20.243-45.125-45.125-45.125zm0 60.25c-8.34 0-15.125-6.785-15.125-15.125s6.785-15.125 15.125-15.125 15.125 6.785 15.125 15.125-6.785 15.125-15.125 15.125z"/><path d="m376.5 241c-24.882 0-45.125 20.243-45.125 45.125s20.243 45.125 45.125 45.125 45.125-20.243 45.125-45.125-20.243-45.125-45.125-45.125zm0 60.25c-8.34 0-15.125-6.785-15.125-15.125s6.785-15.125 15.125-15.125 15.125 6.785 15.125 15.125-6.785 15.125-15.125 15.125z"/><path d="m512 160.5v-100.25h-45.125c-5.304 0-10.394.927-15.125 2.616v-17.741c0-24.882-20.243-45.125-45.125-45.125h-301.25c-24.882 0-45.125 20.243-45.125 45.125v17.741c-4.731-1.688-9.821-2.616-15.125-2.616h-45.125v100.25h60.25v22.823c-17.529 6.198-30.125 22.927-30.125 42.552v135.625h-30.125v90.25h60.25v15.125c0 24.882 20.243 45.125 45.125 45.125h30.125c24.882 0 45.125-20.243 45.125-45.125v-15.125h150.75v15.125c0 24.882 20.243 45.125 45.125 45.125h30.125c24.882 0 45.125-20.243 45.125-45.125v-15.125h60.25v-90.25h-30.125v-135.625c0-19.624-12.596-36.354-30.125-42.552v-22.823zm-45.125-70.25h15.125v40.25h-30.25v-25.125c0-8.34 6.785-15.125 15.125-15.125zm-436.875 40.25v-40.25h15.125c8.34 0 15.125 6.785 15.125 15.125v25.125zm120.625 336.375c0 8.34-6.785 15.125-15.125 15.125h-30.125c-8.34 0-15.125-6.785-15.125-15.125v-15.125h60.375zm-120.625-45.125v-30.25h150.75v30.25h-.125zm271.25-30.25v30.25h-90.5v-30.25zm120.5 75.375c0 8.34-6.785 15.125-15.125 15.125h-30.125c-8.34 0-15.125-6.785-15.125-15.125v-15.125h60.375zm60.25-45.125h-150.625-.125v-30.25h150.75zm-30.125-60.25h-391.75v-135.625c0-8.34 6.785-15.125 15.125-15.125h361.5c8.34 0 15.125 6.785 15.125 15.125zm-30.125-180.75h-96.032l65.667-33.923-13.77-26.653-117.261 60.576h-71.136l65.667-33.923-13.77-26.653-117.261 60.576h-33.604v-135.625c0-8.34 6.785-15.125 15.125-15.125h301.25c8.34 0 15.125 6.785 15.125 15.125z"/></g></svg>