<svg id="Capa_1" enable-background="new 0 0 512 512" height="512" viewBox="0 0 512 512" width="512" xmlns="http://www.w3.org/2000/svg"><g><path d="m444.426 427.791c-15.314-14.449-47.349-20.171-69.672 0-9.443 9.326-24.225 8.512-32.729 0-15.314-14.451-47.346-20.171-69.669 0-9.442 9.326-24.224 8.513-32.727 0-15.314-14.451-47.347-20.171-69.668 0-9.445 9.325-24.225 8.514-32.729 0-15.314-14.45-47.347-20.172-69.669 0-9.445 9.325-24.225 8.514-32.729 0-7.12-5.562-16.87-13.18-34.835-13.18v30c7.635 0 10.735 2.422 16.365 6.82 15.314 14.451 47.346 20.171 69.667 0 9.446-9.325 24.224-8.513 32.73 0 15.314 14.451 47.346 20.171 69.667 0 9.444-9.324 24.224-8.514 32.729 0 15.312 14.451 47.345 20.172 69.667 0 9.446-9.325 24.224-8.513 32.73 0 15.313 14.45 47.346 20.172 69.668 0 9.446-9.326 24.228-8.512 32.733 0 7.12 5.562 16.871 13.179 34.837 13.179s27.718-7.617 34.838-13.179c5.63-4.398 8.731-6.821 16.368-6.821v-30c-17.966 0-27.717 7.617-34.837 13.179-9.443 9.328-24.229 8.516-32.735.002z"/><path d="m444.426 367.541c-15.314-14.449-47.349-20.171-69.672 0-9.443 9.326-24.225 8.512-32.729 0-15.314-14.451-47.346-20.171-69.669 0-9.442 9.326-24.224 8.513-32.727 0-15.314-14.451-47.347-20.171-69.668 0-9.445 9.325-24.225 8.514-32.729 0-15.314-14.45-47.347-20.172-69.669 0-9.445 9.325-24.225 8.514-32.729 0-7.12-5.562-16.87-13.18-34.835-13.18v30c7.635 0 10.735 2.422 16.365 6.82 15.314 14.451 47.346 20.171 69.667 0 9.446-9.325 24.224-8.513 32.73 0 15.314 14.451 47.346 20.171 69.667 0 9.444-9.324 24.224-8.514 32.729 0 15.312 14.451 47.345 20.172 69.667 0 9.446-9.325 24.224-8.513 32.73 0 15.313 14.45 47.346 20.172 69.668 0 9.446-9.326 24.228-8.512 32.733 0 7.12 5.562 16.871 13.179 34.837 13.179s27.718-7.617 34.838-13.179c5.63-4.398 8.731-6.821 16.368-6.821v-30c-17.966 0-27.717 7.617-34.837 13.179-9.443 9.328-24.229 8.516-32.735.002z"/><path d="m323.556 270.682c15.313 14.45 47.346 20.172 69.668 0 9.446-9.326 24.228-8.512 32.733 0 7.12 5.562 16.871 13.179 34.837 13.179s27.718-7.617 34.838-13.179c5.63-4.398 8.731-6.821 16.368-6.821v-30c-17.966 0-27.717 7.617-34.837 13.179-9.445 9.326-24.232 8.514-32.737 0-15.314-14.449-47.349-20.171-69.672 0-9.443 9.326-24.225 8.512-32.729 0-4.633-4.372-10.796-7.942-17.758-10.238 5.734-12.085 16.057-21.583 29.214-26.404 28.764-10.222 53.301-28.55 70.958-53.006 23.036-31.365 29.238-65.789 27.312-110.006-54.549 30.337-102.471 43.624-180.62 39.165v15.564c0 8.337-6.787 15.12-15.13 15.12s-15.13-6.783-15.13-15.13v-15.59c-68.028 3.901-119.418-4.637-180.62-39.079-.86 38.693.341 72.422 27.312 109.956 17.672 24.476 42.232 42.813 71.107 53.059 12.482 4.349 23.129 14.233 28.98 26.214-6.217 2.087-12.242 5.455-17.688 10.375-9.445 9.325-24.225 8.514-32.729 0-15.314-14.45-47.347-20.172-69.669 0-9.445 9.325-24.225 8.514-32.729 0-7.12-5.562-16.87-13.18-34.835-13.18v30c7.635 0 10.735 2.422 16.365 6.82 15.314 14.451 47.346 20.171 69.667 0 9.446-9.325 24.224-8.513 32.73 0 15.314 14.451 47.346 20.171 69.667 0 1.754-1.732 3.692-3.113 5.74-4.161l3.933 28.063c-9.816 1.138-19.677 5.058-28.142 12.707-9.445 9.325-24.225 8.514-32.729 0-15.314-14.45-47.347-20.172-69.669 0-9.445 9.325-24.225 8.514-32.729 0-7.12-5.562-16.87-13.18-34.835-13.18v30c7.635 0 10.735 2.422 16.365 6.82 15.314 14.451 47.346 20.171 69.667 0 9.446-9.325 24.224-8.513 32.73 0 15.314 14.451 47.346 20.171 69.667 0 9.444-9.324 24.224-8.514 32.729 0 15.312 14.451 47.345 20.172 69.667 0 9.446-9.325 24.224-8.513 32.73 0 15.313 14.45 47.346 20.172 69.668 0 9.446-9.326 24.228-8.512 32.733 0 7.12 5.562 16.871 13.179 34.837 13.179s27.718-7.617 34.838-13.179c5.63-4.398 8.731-6.821 16.368-6.821v-30c-17.966 0-27.717 7.617-34.837 13.179-9.445 9.326-24.232 8.514-32.737 0-15.314-14.449-47.349-20.171-69.672 0-9.443 9.326-24.225 8.512-32.729 0-6.835-6.45-17.003-11.15-28.149-12.596l3.948-28.14c2.097 1.068 4.044 2.439 5.735 4.131zm-83.927 36.61c-2.935-2.77-6.488-5.214-10.465-7.222l-7.909-56.435-.128-.77c-5.352-27.634-25.994-51.477-52.507-60.713-23.027-8.171-42.646-22.805-56.736-42.319-9.529-13.199-16.034-27.97-19.267-43.556 36.328 14.33 76.852 21.442 120.914 21.113 6.274 17.385 22.944 29.847 42.469 29.847 19.529 0 36.202-12.468 42.473-29.864 44.275.216 84.772-6.816 120.905-21.071-3.234 15.576-9.737 30.338-19.262 43.53-14.09 19.515-33.709 34.148-56.736 42.319l-.128.046c-27.148 9.912-46.722 32.551-52.357 60.561l-.088.436-7.967 56.792c-3.65 1.908-7.176 4.316-10.485 7.306-9.442 9.325-24.224 8.513-32.726 0z"/></g></svg>