<svg id="Capa_1" enable-background="new 0 0 512 512" height="512" viewBox="0 0 512 512" width="512" xmlns="http://www.w3.org/2000/svg"><g><path d="m135.5 180.75h30v30h-30z"/><path d="m492.67 418.69c-26.77-52.635-40.92-111.669-40.92-170.719v-52.221c0-107.937-87.813-195.75-195.75-195.75s-195.75 87.813-195.75 195.75v52.221c-.036 73.841-20.473 134.677-53.301 195.062l94.219-9.053 27.752 78.02 71.77-65.27 55.31 61.427 55.31-61.427 71.77 65.27 27.751-78.02 94.219 9.053zm-236.67-388.69c64.319 0 120.197 36.826 147.661 90.5h-27.161c-23.433 0-45.463 9.125-62.033 25.695l-16.597 16.597c-12.365-7.833-26.841-12.167-41.869-12.167-15.029 0-29.505 4.334-41.87 12.168l-16.597-16.597c-17.05-17.05-37.248-25.695-60.033-25.695h-29.161c27.463-53.675 83.341-90.501 147.66-90.501zm-39.767 171.53c9.056-13.09 23.922-20.905 39.768-20.905s30.712 7.815 39.768 20.905c6.439 9.309 23.782 36.595 33.421 51.833-21.498 21.035-51.6 58.52-73.159 93.048-21.624-34.82-51.471-71.955-73.2-93.078 9.643-15.243 26.966-42.499 33.402-51.803zm174.176 200.35-20.489 57.6-60.73-55.23-53.19 59.073-53.19-59.073-60.73 55.23-20.489-57.601-64.193 6.168c21.55-50.421 32.852-105.244 32.852-160.076v-52.221c0-15.682 2.19-30.861 6.278-45.25h40.972c14.745 0 27.442 5.531 38.82 16.908l15.997 15.997c-15.882 23.267-40.707 63.348-48.599 75.722 37.724 28.471 86.948 95.976 112.271 149.905 25.334-54.099 75.039-121.708 112.285-149.918-8.481-13.309-32.617-52.287-48.592-75.709l15.996-15.996c10.904-10.903 25.4-16.908 40.82-16.908h38.972c4.089 14.389 6.278 29.568 6.278 45.25v52.221c0 54.832 11.302 109.655 32.852 160.077z"/><path d="m346.5 180.75h30v30h-30z"/><path d="m212.875 228.431h30v30h-30z"/><path d="m269.125 228.431h30v30h-30z"/></g></svg>