<svg id="Capa_1" enable-background="new 0 0 513.062 513.062" height="512" viewBox="0 0 513.062 513.062" width="512" xmlns="http://www.w3.org/2000/svg"><g><path d="m225.812 75.781v-75.25h-134.374v75.25c0 8.34-6.785 15.125-15.125 15.125v30c8.34 0 15.125 6.785 15.125 15.125v53.604c-9.006-5.3-19.484-8.354-30.668-8.354h-60.77v29.582c0 33.453 27.216 60.668 60.668 60.668h15.644c8.34 0 15.125 6.785 15.125 15.125v90.375c0 8.34-6.785 15.125-15.125 15.125v30c8.34 0 15.125 6.785 15.125 15.125v75.25h134.375v-75.25c0-8.34 6.785-15.125 15.125-15.125v-30c-8.34 0-15.125-6.785-15.125-15.125v-90.375c0-8.34 6.785-15.125 15.125-15.125v-30c-8.34 0-15.125-6.785-15.125-15.125v-90.375c0-8.34 6.785-15.125 15.125-15.125v-30c-8.339 0-15.125-6.785-15.125-15.125zm-165.144 165.75c-16.771 0-30.441-13.531-30.666-30.25h30.766c16.771 0 30.441 13.531 30.666 30.25zm135.144 195.75v45.25h-74.375v-45.25c0-5.304-.93-10.393-2.619-15.125h79.612c-1.688 4.732-2.618 9.821-2.618 15.125zm2.619-45.125h-79.612c1.689-4.732 2.619-9.821 2.619-15.125v-90.375c0-5.304-.93-10.393-2.619-15.125h79.612c-1.689 4.732-2.619 9.821-2.619 15.125v90.375c0 5.305.93 10.394 2.619 15.125zm0-150.625h-77.004c-.018-2.685.011-105.5.011-105.5 0-5.304-.93-10.393-2.619-15.125h79.612c-1.689 4.732-2.619 9.821-2.619 15.125v90.375c0 5.305.93 10.394 2.619 15.125zm-79.612-150.625c1.689-4.732 2.619-9.821 2.619-15.125v-45.25h74.375v45.25c0 5.304.93 10.393 2.619 15.125z"/><path d="m452.293 271.656c-11.625 0-22.492 3.293-31.73 8.985v-54.235c0-8.34 6.785-15.125 15.125-15.125v-30c-8.34 0-15.125-6.785-15.125-15.125v-75.25h-134.375v75.25c0 8.34-6.785 15.125-15.125 15.125v30c8.34 0 15.125 6.785 15.125 15.125v90.375c0 8.34-6.785 15.125-15.125 15.125v30c8.34 0 15.125 6.785 15.125 15.125v90.375c0 8.34-6.785 15.125-15.125 15.125v30h164.625v-30c-8.34 0-15.125-6.785-15.125-15.125v-90.375c0-8.34 6.785-15.125 15.125-15.125h16.707c33.452 0 60.668-27.216 60.668-60.668v-29.582zm-136.105-105.5v-45.25h74.375v45.25c0 5.304.93 10.393 2.619 15.125h-79.612c1.688-4.731 2.618-9.82 2.618-15.125zm-2.619 45.125h79.612c-1.689 4.732-2.619 9.821-2.619 15.125 0 0 1.083 103.998 1.073 105.5h-78.067c1.689-4.732 2.619-9.821 2.619-15.125v-90.375c.001-5.304-.929-10.393-2.618-15.125zm79.601 271.25h-79.59c1.688-4.73 2.607-9.822 2.607-15.125v-90.375c0-5.304-.93-10.393-2.619-15.125h79.612c-1.689 4.732-2.619 9.821-2.619 15.125v90.375c.001 5.303.92 10.395 2.609 15.125zm59.225-150.625h-30.767c.224-16.719 13.894-30.25 30.665-30.25h30.767c-.224 16.719-13.894 30.25-30.665 30.25z"/></g></svg>