<svg id="Capa_1" enable-background="new 0 0 512 512" height="512" viewBox="0 0 512 512" width="512" xmlns="http://www.w3.org/2000/svg"><path d="m0 194.165v63.488c38.968-2.943 63.811 15.349 60.25 60.25 36.824-3.015 63.462 14.285 60.25 57.373l78.304 16.8c14.866 34.281 41.179 52.71 57.196 66.463 15.55-13.496 42.425-32.036 57.196-66.463l78.304-16.8c-2.673-37.631 17.624-60.979 60.25-57.373-2.943-38.968 15.349-63.811 60.25-60.25v-63.488c-.674-63.072-52.709-109.8-116.548-105.375l-28.648 95.854c-4.01 14.976-20.019 25.433-33.873 24.909-.637-9.744-2.891-19.236-6.623-28.061 21.056-13.352 35.068-36.853 35.068-63.577v-64.455h-15c-41.493 0-75.25 33.757-75.25 75.25v5.903c-4.924-1.035-9.982-1.573-15.125-1.573s-10.201.537-15.125 1.573v-5.903c0-41.493-33.757-75.25-75.25-75.25h-15v64.455c0 26.725 14.012 50.225 35.068 63.576-3.732 8.825-5.987 18.318-6.624 28.062-15.81.128-29.799-10.703-33.873-24.909l-28.648-95.854c-63.84-4.425-115.875 42.303-116.549 105.375zm180.98 45.348 12.987 120.843-42.497-9.118 8.879-114.307c6.719 1.99 13.669 2.849 20.631 2.582zm29.895-90.926c-3.053 2.363-5.962 4.981-8.708 7.844-12.914-7.977-21.542-22.254-21.542-38.515v-31.9c17.601 6.202 30.25 23 30.25 42.695zm120.5-30.671c0 16.261-8.625 30.542-21.539 38.519-2.747-2.865-5.657-5.484-8.711-7.848v-19.877c0-19.695 12.649-36.493 30.25-42.695zm20.276 119.015 8.879 114.308-42.497 9.118 12.986-120.844c6.962.266 13.913-.593 20.632-2.582zm92.217 12.749-19.483-128.774c33.02 8.006 57.615 37.814 57.615 73.259v34.989c-14.718 2.99-27.885 10.296-38.132 20.526zm-56.715 56.927-6.772-87.189c6.973-7.305 12.183-16.198 15.167-26.182l6.267-20.969 17.795 117.614c-12.228 2.86-23.32 8.703-32.457 16.726zm-161.141 71.163-16.896-157.21c-1.428-15.787 3.597-31.246 13.796-42.43 17.782-20.305 49.247-19.386 66.176 0 10.199 11.184 15.224 26.643 13.796 42.43l-16.918 157.434c-.951 10.307-16.136 28.138-29.957 41.174-13.827-13.059-29.027-30.909-29.975-41.174zm-133.621-87.889 17.795-117.614 6.267 20.969c2.984 9.985 8.193 18.878 15.167 26.182l-6.772 87.189c-9.138-8.023-20.23-13.866-32.457-16.726zm-62.391-95.716c0-35.445 24.595-65.253 57.615-73.259l-19.483 128.774c-10.247-10.23-23.414-17.536-38.132-20.526z"/></svg>