<svg id="Capa_1" enable-background="new 0 0 512 512" height="512" viewBox="0 0 512 512" width="512" xmlns="http://www.w3.org/2000/svg"><path d="m466.875 421.75h-17.698c-6.198-17.529-22.927-30.125-42.552-30.125-24.882 0-45.125 20.243-45.125 45.125v45.25h-30.25v-123.2h75.375c24.882 0 45.125-20.243 45.125-45.125v-17.067c25.235-6.651 43.9-29.663 43.9-56.958 0-32.478-26.422-58.9-58.9-58.9s-58.9 26.422-58.9 58.9c0 27.295 18.665 50.307 43.9 56.958v17.067c0 8.34-6.785 15.125-15.125 15.125h-75.375v-128.214c35.589-16.935 60.25-53.245 60.25-95.211 0-58.104-47.271-105.375-105.375-105.375-43.444 0-80.814 26.435-96.913 64.057-7.424-2.458-15.349-3.807-23.587-3.807-41.493 0-75.25 33.757-75.25 75.25 0 36.358 25.919 66.772 60.25 73.745v16.63c0 24.882 20.243 45.125 45.125 45.125h45.25v211h-30.25v-60.25h-105.375c-8.34 0-15.125-6.785-15.125-15.125v-16.63c34.331-6.972 60.25-37.387 60.25-73.745 0-41.493-33.757-75.25-75.25-75.25s-75.25 33.757-75.25 75.25c0 36.358 25.919 66.772 60.25 73.745v16.63c0 24.882 20.243 45.125 45.125 45.125h15.125v30.25h-120.5v30h512v-45.125c0-24.882-20.243-45.125-45.125-45.125zm-59.025-182.1c0-15.936 12.964-28.9 28.9-28.9s28.9 12.964 28.9 28.9-12.964 28.9-28.9 28.9-28.9-12.965-28.9-28.9zm-377.85 76.6c0-24.951 20.299-45.25 45.25-45.25s45.25 20.299 45.25 45.25-20.299 45.25-45.25 45.25-45.25-20.299-45.25-45.25zm120.5 135.5h30.25v30.25h-30.25zm135.625-421.75c41.562 0 75.375 33.813 75.375 75.375s-33.813 75.375-75.375 75.375c-19.162 0-36.663-7.201-49.973-19.025 3.048-8.171 4.723-17.005 4.723-26.225 0-22.388-9.839-42.511-25.406-56.308 10.663-28.689 38.3-49.192 70.656-49.192zm-165.75 105.5c0-24.951 20.299-45.25 45.25-45.25s45.25 20.299 45.25 45.25-20.299 45.25-45.25 45.25-45.25-20.299-45.25-45.25zm75.375 105.5c-8.34 0-15.125-6.785-15.125-15.125v-16.63c15.348-3.117 29.001-10.932 39.422-21.857 6.412 5.176 13.437 9.62 20.953 13.197v40.415zm75.25 241v-272.334c4.94.713 9.99 1.084 15.125 1.084s10.184-.377 15.125-1.09v272.34zm120.5 0v-45.25c0-8.34 6.785-15.125 15.125-15.125s15.125 6.785 15.125 15.125v45.25zm60.25 0v-30.25h15.125c8.34 0 15.125 6.785 15.125 15.125v15.125z"/></svg>