<svg id="Capa_1" enable-background="new 0 0 512 512" height="512" viewBox="0 0 512 512" width="512" xmlns="http://www.w3.org/2000/svg"><path d="m419.104 361.5c-31.479 0-61.075 12.259-83.335 34.518-16.594 16.594-38.656 25.732-62.122 25.732h-2.647v-135.625c0-8.34 6.785-15.125 15.125-15.125h90.375c24.882 0 45.125-20.243 45.125-45.125v-15.125h60.25v-45.125c0-24.882-20.243-45.125-45.125-45.125h-105.5v-30.25h60.25v-45.125c0-24.882-20.243-45.125-45.125-45.125h-120.5c-24.882 0-45.125 20.243-45.125 45.125v45.125h120.5v30.25h-45.25c-24.882 0-45.125 20.243-45.125 45.125v45.125h90.375v15.125c0 8.34-6.785 15.125-15.125 15.125-24.882 0-45.125 20.243-45.125 45.125v15.125h-105.5c-8.34 0-15.125-6.785-15.125-15.125v-45.25h60.25v-45.125c0-24.882-20.243-45.125-45.125-45.125h-60.25c-24.882 0-45.125 20.243-45.125 45.125v45.125h60.25v45.25c0 24.882 20.243 45.125 45.125 45.125h105.5v90.5h-32.771c-23.466 0-45.528-9.138-62.122-25.732-22.26-22.259-51.855-34.518-83.335-34.518h-62.772v150.5h512v-150.5zm-208.354-316.375c0-8.34 6.785-15.125 15.125-15.125h120.5c8.34 0 15.125 6.785 15.125 15.125v15.125h-150.75zm30.125 120.5c0-8.34 6.785-15.125 15.125-15.125h180.75c8.34 0 15.125 6.785 15.125 15.125v15.125h-211zm90.375 60.25v-15.125h60.375v15.125c0 8.34-6.785 15.125-15.125 15.125h-47.866c1.689-4.731 2.616-9.821 2.616-15.125zm-271.125-30.125c0-8.34 6.785-15.125 15.125-15.125h60.25c8.34 0 15.125 6.785 15.125 15.125v15.125h-90.5zm-30.125 195.75h32.771c23.466 0 45.528 9.138 62.122 25.732 1.557 1.557 3.154 3.06 4.781 4.518h-99.674zm452 90.5h-452v-30.25h243.646c31.479 0 61.075-12.259 83.335-34.518 16.594-16.594 38.656-25.732 62.122-25.732h62.897z"/></svg>