<svg id="Capa_1" enable-background="new 0 0 512 512" height="512" viewBox="0 0 512 512" width="512" xmlns="http://www.w3.org/2000/svg"><g><path d="m150.625 120.5h30v30h-30z"/><path d="m210.875 89.215h30v30h-30z"/><path d="m328.743 482c18.904-18.743 30.632-44.714 30.632-73.375v-47.125h-29.076l-10.034-153.069h40.505l15.729-20.491 15.729 20.491h73.359l2.341-12.166c9.39-48.791-13.559-97.11-57.104-120.237l-60.858-32.3c-5.808-3.063-11.211-7.045-16.063-11.838-19.514-20.216-47.793-31.837-77.616-31.89-.07 0-.137 0-.207 0-29.884 0-58.208 11.531-77.758 31.656-4.934 4.9-10.42 8.965-16.324 12.091l-60.824 32.282c-43.545 23.126-66.493 71.446-57.104 120.236l2.341 12.166h145.324l-10.034 153.069h-29.076v47.125c0 28.661 11.727 54.632 30.632 73.375h-183.257v30h512v-30zm-213.501-379.475 60.806-32.272c8.553-4.528 16.472-10.393 23.535-17.431l.188-.19c13.933-14.388 34.448-22.632 56.308-22.632h.154c21.795.039 42.271 8.357 56.18 22.821l.247.251c6.988 6.935 14.832 12.719 23.278 17.173l60.817 32.278c28.214 14.984 44.59 44.49 43.16 75.907h-32.894l-30.521-39.758-30.521 39.759h-273.893c-1.431-31.418 14.946-60.923 43.156-75.906zm106.557 105.906h68.402l10.034 153.069h-28.505l-15.73 20.491-15.729-20.491h-28.505zm-39.174 200.194v-17.125h42.854l30.521 39.759 30.521-39.759h42.854v17.125c0 40.459-32.916 73.375-73.375 73.375s-73.375-32.916-73.375-73.375z"/></g></svg>