<svg id="Capa_1" enable-background="new 0 0 512 512" height="512" viewBox="0 0 512 512" width="512" xmlns="http://www.w3.org/2000/svg"><path d="m481.875 421.75v-46.184l-26.942-215.538c-2.167-17.336-14.064-31.383-29.776-36.946v-17.707c0-19.577-12.534-36.274-29.997-42.508v-62.867h-103.91v180.75h-70.5v-180.75h-103.91v62.867c-17.462 6.234-29.997 22.932-29.997 42.508v17.707c-15.712 5.563-27.609 19.609-29.776 36.946l-26.942 215.538v46.184h-30.125v90.25h220.75v-90.25h-30.125v-32.813c17.531-6.196 30.125-22.936 30.125-42.562v-15.125h70.5v15.125c0 19.626 12.594 36.366 30.125 42.562v32.812h-30.125v90.251h220.75v-90.25zm-160.625-391.75h43.91v30.25h-43.91zm0 60.25h58.781c8.34 0 15.125 6.785 15.125 15.125v15.125h-73.906zm-130.5 30.25h-73.906v-15.125c0-8.34 6.785-15.125 15.125-15.125h58.781zm-43.91-90.5h43.91v30.25h-43.91zm43.91 421.75v30.25h-160.75v-30.25h.125 160.5zm-130.625-30v-30.25h100.5v30.25zm130.625-75.375c0 8.34-6.785 15.125-15.125 15.125h-113.508l24.719-197.751c.944-7.553 7.396-13.249 15.008-13.249h88.906zm30-45.125v-90.5h70.5v90.5zm100.5 45.125v-195.875h88.906c7.612 0 14.064 5.696 15.008 13.249l24.719 197.751h-113.508c-8.34 0-15.125-6.785-15.125-15.125zm30.125 45.125h100.5v30.25h-100.5zm130.625 90.5h-160.75v-30.25h.125 160.5.125z"/></svg>