<svg id="Capa_1" enable-background="new 0 0 512 512" height="512" viewBox="0 0 512 512" width="512" xmlns="http://www.w3.org/2000/svg"><g><path d="m275.125 367.5h30v30h-30z"/><path d="m241 421.75h30v30h-30z"/><path d="m241.062 313.25h30v30h-30z"/><path d="m206.937 367.5h30v30h-30z"/><path d="m376.5 482c-8.34 0-15.125-6.785-15.125-15.125v-120.5c0-6.368-.568-12.605-1.656-18.665 18.594-7.384 31.781-25.543 31.781-46.735v-9.975h15.125c24.882 0 45.125-20.243 45.125-45.125v-15.125h30.125v-45.125c0-24.882-20.243-45.125-45.125-45.125h-15.125v-15.125c0-24.882-20.243-45.125-45.125-45.125h-15.125v-15.125c0-24.882-20.243-45.125-45.125-45.125h-120.5c-24.882 0-45.125 20.243-45.125 45.125v15.125h-15.125c-24.882 0-45.125 20.243-45.125 45.125v15.125h-15.125c-24.882 0-45.125 20.243-45.125 45.125v45.125h30.125v15.125c0 24.882 20.243 45.125 45.125 45.125h15.125v9.976c0 21.192 13.187 39.35 31.781 46.735-1.088 6.06-1.656 12.297-1.656 18.665v120.5c0 8.34-6.785 15.125-15.125 15.125h-135.5v30h512v-30h-135.5zm-26.324-182.86c-4.927-9.784-11.334-18.698-18.926-26.449v-61.941h30.25v70.226c0 7.964-4.627 14.85-11.324 18.164zm-139.426-88.39h30.25v31.322c-10.679 1.529-20.847 4.661-30.25 9.15zm60.25 0h30.25v40.473c-9.403-4.49-19.571-7.622-30.25-9.151zm150.75 15.125c0 8.34-6.785 15.125-15.125 15.125h-15.125v-30.25h30.25zm-241.125-180.75c0-8.34 6.785-15.125 15.125-15.125h120.5c8.34 0 15.125 6.785 15.125 15.125v15.125h-150.75zm-60.25 60.25c0-8.34 6.785-15.125 15.125-15.125h241c8.34 0 15.125 6.785 15.125 15.125v15.125h-271.25zm-60.25 60.25c0-8.34 6.785-15.125 15.125-15.125h15.125 331.25 15.125c8.34 0 15.125 6.785 15.125 15.125v15.125h-391.75zm45.25 75.375c-8.34 0-15.125-6.785-15.125-15.125v-15.125h30.25v30.25zm45.125 39.976v-70.226h30.25v61.941c-7.592 7.752-13.999 16.665-18.926 26.449-6.697-3.314-11.324-10.201-11.324-18.164zm27.518 201.024c1.688-4.73 2.607-9.822 2.607-15.125v-120.5c0-41.562 33.813-75.375 75.375-75.375s75.375 33.813 75.375 75.375v120.5c0 5.303.919 10.395 2.607 15.125z"/></g></svg>