<svg id="Capa_1" enable-background="new 0 0 512 512" height="512" viewBox="0 0 512 512" width="512" xmlns="http://www.w3.org/2000/svg"><path d="m455.489 206.352-19.801 22.537 13.786 12.111h-58.693c-2.303-24.683-10.249-48.548-23.361-69.764-15.753-25.489-38.245-46.044-65.046-59.445l-.636-.3c-19.725-8.731-30.472-16.873-30.738-34.827v-76.664h-15c-39.212 0-71.498 30.152-74.931 68.486l-141.911 134.134h-39.158l20.949 53.38-20.949 53.38h39.158l141.911 134.134c3.433 38.334 35.719 68.486 74.931 68.486h15v-76.645c.284-15.797 9.106-25.859 30.419-34.71l.955-.437c26.801-13.4 49.293-33.956 65.046-59.445 13.112-21.215 21.058-45.081 23.361-69.764h58.693l-13.785 12.111 19.801 22.537 56.51-49.647zm-214.489-173.797v44.216l.001.193c.521 40.374 33.701 55.365 48.263 61.813 21.679 10.91 39.875 27.582 52.637 48.23 10.177 16.466 16.53 34.895 18.725 53.992h-30.427c-2.366-17.103-8.648-33.476-18.537-48.009-13.288-19.526-32.585-34.808-55.835-44.226-27.818-14.15-45.076-42.266-45.076-73.515-.001-19.694 12.648-36.492 30.249-42.694zm-55.963 73.461c8.095 29.344 30.519 57.053 59.04 70.359 30 11.98 50.353 36 55.754 64.625h-185.347l-15.063-38.38h-16.59zm-141.035 173.364 9.176-23.38-9.176-23.38h34.966l9.175 23.38-9.175 23.38zm55.419 30 15.063-38.38h185.49c-5.118 28.464-25.232 52.036-56.031 64.679-28.03 13.474-50.247 39.51-58.907 70.305l-102.205-96.604zm242.479 15.612c-12.734 20.605-30.88 37.25-52.499 48.161-32.131 13.487-47.963 33.72-48.399 61.843l-.002 44.449c-17.601-6.202-30.25-23-30.25-42.695 0-31.272 17.28-59.405 45.136-73.545 23.834-9.897 43.369-25.447 56.519-44.996 9.603-14.277 15.664-30.372 17.894-47.208h30.327c-2.196 19.095-8.548 37.524-18.726 53.991z"/></svg>