<svg id="Capa_1" enable-background="new 0 0 512 512" height="512" viewBox="0 0 512 512" width="512" xmlns="http://www.w3.org/2000/svg"><path d="m455.819 354.045c-20.337-28.839-31.072-62.669-31.072-98.045s10.735-69.206 31.072-98.045l29.384-16.965-15-25.98-29.385 16.965c-35.139 3.195-69.807-4.425-100.444-22.114-30.636-17.688-54.566-43.899-69.374-75.93v-33.931h-30v33.931c-14.808 32.031-38.738 58.242-69.374 75.93s-65.31 25.303-100.445 22.114l-29.383-16.965-15 25.98 29.384 16.965c20.336 28.839 31.071 62.669 31.071 98.045s-10.735 69.206-31.072 98.045l-29.383 16.965 15 25.98 29.384-16.965c35.142-3.193 69.808 4.426 100.444 22.114 30.636 17.687 54.566 43.898 69.374 75.93v33.931h30v-33.931c14.808-32.031 38.738-58.242 69.374-75.93 30.635-17.688 65.307-25.307 100.444-22.114l29.384 16.965 15-25.98zm-184.819-175.764c6.364 5.81 13.386 10.963 21.003 15.361s15.59 7.902 23.804 10.509l-44.807 25.868zm-30 51.738-44.807-25.869c8.214-2.606 16.188-6.111 23.804-10.508 7.617-4.398 14.639-9.55 21.003-15.361zm-15 25.981-44.807 25.87c1.85-8.417 2.801-17.074 2.801-25.87 0-8.795-.951-17.452-2.801-25.87zm15 25.981v51.739c-6.364-5.81-13.386-10.963-21.003-15.361s-15.59-7.902-23.804-10.509zm30 0 44.807 25.869c-8.215 2.606-16.188 6.111-23.804 10.508-7.617 4.398-14.639 9.55-21.003 15.361zm15-25.981 44.807-25.87c-1.85 8.417-2.801 17.074-2.801 25.87 0 8.795.951 17.452 2.801 25.87zm121.353 70.063-33.737-19.478c-20.905-30.623-20.905-70.547 0-101.17l33.737-19.478c-8.306 22.205-12.605 45.823-12.605 70.063s4.299 47.858 12.605 70.063zm-81.979-190.221c20.994 12.121 43.595 20.206 66.977 24.115l-33.737 19.478c-36.979 2.79-71.547-17.169-87.615-50.583v-38.958c15.078 18.295 33.383 33.828 54.375 45.948zm-138.748 0c20.992-12.12 39.297-27.652 54.374-45.948v38.958c-16.068 33.414-50.636 53.377-87.614 50.583l-33.738-19.479c23.383-3.909 45.986-11.995 66.978-24.114zm-81.979 50.095 33.737 19.478c20.905 30.623 20.905 70.547 0 101.17l-33.737 19.478c8.306-22.205 12.605-45.823 12.605-70.063s-4.299-47.858-12.605-70.063zm81.979 190.221c-20.994-12.121-43.594-20.206-66.977-24.115l33.738-19.478c36.975-2.795 71.545 17.169 87.613 50.584v38.958c-15.078-18.296-33.382-33.829-54.374-45.949zm138.748 0c-20.992 12.12-39.297 27.652-54.374 45.948v-38.958c16.068-33.414 50.642-53.372 87.615-50.583l33.738 19.478c-23.384 3.91-45.987 11.996-66.979 24.115z"/></svg>