<svg id="Capa_1" enable-background="new 0 0 512 512" height="512" viewBox="0 0 512 512" width="512" xmlns="http://www.w3.org/2000/svg"><path d="m451.75 361.5v-90.375h-90.25v90.375h-60.375v-150.75h15.125c58.104 0 105.375-47.271 105.375-105.375v-75.245h-90.25v75.245c0 8.34-6.785 15.125-15.125 15.125h-15.125v-120.5h-90.25v180.75h-15.125c-8.34 0-15.125-6.785-15.125-15.125v-105.375h-90.25v105.375c0 58.104 47.271 105.375 105.375 105.375h15.125v90.5h-15.125c-23.467 0-45.528-9.139-62.122-25.731-22.259-22.26-51.855-34.519-83.334-34.519h-50.294v210.75h512v-150.5zm-60.25-60.375h30.25v60.375h-30.25zm-195.75-60.125c-41.562 0-75.375-33.813-75.375-75.375v-75.375h30.25v75.375c0 24.882 20.243 45.125 45.125 45.125h45.125v-180.75h30.25v120.5h45.125c24.882 0 45.125-20.243 45.125-45.125v-45.245h30.25v45.245c0 41.562-33.813 75.375-75.375 75.375h-45.125v180.75h-30.25v-120.5zm-165.75 90.25h20.294c23.466 0 45.528 9.139 62.121 25.731 22.259 22.26 51.855 34.519 83.335 34.519h144.799c-1.627 1.458-3.224 2.961-4.781 4.519-16.593 16.593-38.654 25.731-62.121 25.731h-243.647zm452 150.75h-452v-30.25h243.647c31.48 0 61.076-12.259 83.335-34.519 16.593-16.593 38.654-25.731 62.121-25.731h62.897z"/></svg>