<svg id="Capa_1" enable-background="new 0 0 512 512" height="512" viewBox="0 0 512 512" width="512" xmlns="http://www.w3.org/2000/svg"><g><path d="m256 91.889c-90.491 0-164.111 73.62-164.111 164.111s73.62 164.111 164.111 164.111 164.111-73.62 164.111-164.111-73.62-164.111-164.111-164.111zm0 298.222c-73.949 0-134.111-60.162-134.111-134.111s60.162-134.111 134.111-134.111 134.111 60.162 134.111 134.111-60.162 134.111-134.111 134.111z"/><path d="m512 271v-30h-30.627c-1.941-29.803-9.655-58.485-22.604-84.749l26.433-15.261-15-25.98-26.466 15.28c-8.13-12.087-17.487-23.477-28.018-34.008s-21.921-19.888-34.008-28.018l15.281-26.466-25.98-15-15.261 26.433c-26.265-12.949-54.947-20.663-84.75-22.604v-30.627h-30v30.627c-29.803 1.941-58.485 9.655-84.749 22.604l-15.261-26.433-25.98 15 15.28 26.466c-12.087 8.13-23.477 17.487-34.008 28.018s-19.888 21.921-28.018 34.008l-26.467-15.28-15 25.98 26.434 15.261c-12.949 26.264-20.663 54.946-22.604 84.749h-30.627v30h30.627c1.941 29.803 9.655 58.485 22.604 84.748l-26.434 15.262 15 25.98 26.467-15.281c8.13 12.087 17.487 23.477 28.018 34.008s21.921 19.888 34.008 28.018l-15.28 26.466 25.98 15 15.261-26.433c26.264 12.949 54.945 20.662 84.749 22.604v30.628h30v-30.627c29.803-1.941 58.485-9.655 84.749-22.604l15.261 26.433 25.98-15-15.281-26.466c12.087-8.13 23.477-17.487 34.008-28.018s19.888-21.921 28.018-34.008l26.466 15.28 15-25.98-26.433-15.261c12.949-26.264 20.663-54.945 22.604-84.749zm-256 180.875c-108.006 0-195.875-87.869-195.875-195.875s87.869-195.875 195.875-195.875 195.875 87.869 195.875 195.875-87.869 195.875-195.875 195.875z"/></g></svg>