<svg id="Capa_1" enable-background="new 0 0 511.818 511.818" height="512" viewBox="0 0 511.818 511.818" width="512" xmlns="http://www.w3.org/2000/svg"><path d="m58.668 444.046c46.874 46.875 112.323 54.568 182.241 22.349v45.423h30v-45.445c28.318 13.05 55.918 19.578 81.833 19.58 38.067.003 72.52-14.018 100.408-41.906 60.651-64.161 37.341-137.841 29.418-166.374l-78.971 78.971c-5.897 5.893-15.492 5.897-21.382.004-6.401-6.383-5.033-16.428-.015-21.39l90.838-90.829c-10.891-27.09-28.056-55.991-45.867-81.78l-66.184 66.186c-5.897 5.896-15.492 5.896-21.388-.001-5.885-5.895-5.887-15.495.005-21.391l69.082-69.071c-18.135-22.567-39.218-46.06-60.121-67.541l-18.864 18.889c-5.891 5.888-15.484 5.89-21.381-.008-5.898-5.898-5.902-15.493-.009-21.387l18.695-18.72c-22.3-21.669-39.164-35.163-70.722-49.605-28.673 11.766-49.906 28.426-71.472 49.606l18.689 18.713c5.899 5.9 5.896 15.495-.004 21.395-5.896 5.895-15.491 5.896-21.387-.001l-18.858-18.883c-21.358 21.963-43.368 46.634-60.121 67.541l69.088 69.076c5.893 5.893 5.891 15.489-.006 21.392-5.893 5.891-15.486 5.891-21.383-.006l-66.188-66.189c-17.832 25.9-35.058 54.803-45.849 81.788l90.824 90.825c6.394 6.377 5.007 16.431-.01 21.386-6.375 6.398-16.421 5.014-21.377.001l-78.98-78.968c-7.924 28.529-31.233 102.21 29.418 166.37zm-10.302-104.835 38.652 38.646c17.059 17.569 47.467 17.185 63.807-.005 17.809-17.086 16.924-47.644.005-63.81l-76.228-76.228c4.324-9 9.354-18.269 15.049-27.734l39.966 39.966c17.594 17.591 46.22 17.594 63.813.001 17.588-17.604 17.586-46.229 0-63.814l-49.739-49.731c6.421-7.504 13.193-15.117 20.267-22.781 17.717 14.742 44.149 13.809 60.753-2.793 16.381-16.383 17.515-42.324 3.401-60.021 8.222-6.671 15.881-11.441 27.801-17.565 11.917 6.125 19.572 10.894 27.793 17.565-14.114 17.691-12.981 43.637 3.4 60.021 16.609 16.605 43.046 17.536 60.754 2.794 7.074 7.665 13.846 15.277 20.267 22.781l-49.738 49.73c-17.574 17.588-17.576 46.209-.011 63.806 17.604 17.602 46.229 17.602 63.823.01l39.969-39.97c5.688 9.452 10.719 18.721 15.054 27.738l-76.235 76.227c-17.815 17.093-16.91 47.646.01 63.814 17.575 17.59 46.202 17.595 63.809.004l38.646-38.646c.537 32.171-10.43 63.09-31.515 83.619-21.127 21.127-46.663 32.233-75.9 33.013-30.017 1.283-68.368-11.679-100.122-31.418-32.136 19.844-70.312 32.773-100.133 31.418-29.237-.779-54.774-11.886-75.901-33.013-18.705-18.706-29.2-43.017-31.193-72.257-.274-3.977-.362-7.787-.324-11.367z"/></svg>