<svg id="Capa_1" enable-background="new 0 0 512 512" height="512" viewBox="0 0 512 512" width="512" xmlns="http://www.w3.org/2000/svg"><path d="m482 376.5v24.037l-33.889-33.889-177.111-236.148v-12.726l101.965-52.863-101.965-52.864v-12.047h-30v130.5l-177.111 236.148-33.889 33.889v-24.037h-30v135.5h512v-135.5zm-60.25 5v100.5h-64.98l-85.77-228.72v-72.78zm-165.75-82.78 68.73 183.28h-137.46zm51.785-233.809-36.785 19.072v-38.144zm-66.785 115.589v72.78l-85.77 228.72h-64.98v-100.5zm-211 262.463 30.25-30.25v69.287h-30.25zm421.75 39.037v-69.287l30.25 30.25v39.037z"/></svg>