<svg id="Capa_1" enable-background="new 0 0 512 512" height="512" viewBox="0 0 512 512" width="512" xmlns="http://www.w3.org/2000/svg"><path d="m503 120.438v-30h-21.125v-.062c0-17.989-7.943-34.149-20.495-45.188 12.552-11.039 20.495-27.199 20.495-45.188h-30c0 16.646-13.542 30.188-30.188 30.188s-30.187-13.542-30.187-30.188h-30c0 17.989 7.943 34.149 20.495 45.188-12.552 11.038-20.495 27.198-20.495 45.187v.062h-21.125v30h21.125v30.25h-21.125v30h18.559c-4.547 12.901-14.782 23.136-27.684 27.684v-18.526h-30v21.093h-30.25v-21.093h-30v21.093h-30.25v-21.093h-30v21.779c-11.067.998-21.822 3.089-32.159 6.165l-9.378-22.648-27.718 11.477 9.237 22.308c-11.083 5.654-21.446 12.523-30.919 20.425l-17.241-17.241-21.213 21.213 17.236 17.236c-7.916 9.48-14.798 19.851-20.462 30.945l-22.169-9.179-11.477 27.719 22.502 9.317c-3.083 10.35-5.178 21.12-6.177 32.202h-21.812v30h21.125v30.188h-21.125v30h21.125v.062c0 33.188 27 60.188 60.188 60.188s60.188-27 60.188-60.188v-.062h21.125v-30h-21.126v-30.188h21.125v-30h-18.559c4.547-12.901 14.782-23.136 27.684-27.684v18.559h30v-21.125h30.25v21.125h30v-21.125h30.25v22.469h30v-23.155c10.886-.982 21.471-3.02 31.652-6.013l9.013 21.766 27.718-11.477-8.837-21.343c10.967-5.551 21.24-12.281 30.643-20.032l17.989 17.989 21.213-21.213-17.867-17.866c7.909-9.359 14.801-19.601 20.503-30.559l21.248 8.798 11.478-27.719-21.357-8.843c3.285-10.724 5.503-21.908 6.543-33.427h21.811v-30h-21.125v-30.25h21.125zm-186.75 180.874h-120.5c-41.493 0-75.25 33.757-75.25 75.25v75.25c0 16.646-13.542 30.188-30.188 30.188s-30.188-13.542-30.188-30.188v-75.25c0-74.784 60.841-135.625 135.625-135.625h120.5c41.493 0 75.25-33.757 75.25-75.25v-75.312c0-16.646 13.542-30.188 30.188-30.188s30.188 13.542 30.188 30.188v75.312c0 74.785-60.841 135.625-135.625 135.625z"/></svg>