<svg id="Capa_1" enable-background="new 0 0 512 512" height="512" viewBox="0 0 512 512" width="512" xmlns="http://www.w3.org/2000/svg"><g><path d="m506.534 482-99.909-213.084-23.02 49.096-127.605-265.376-68.388 142.225-21.987-45.725-160.056 332.864h-5.569v30h512v-30zm-33.134 0h-133.55l66.775-142.416zm-185.804-294.427-31.596 12.113-31.596-12.112 31.596-65.71zm-76.236 27.128 44.64 17.113 44.64-17.113 66.531 138.362-51.092 108.968-111.823-232.556zm-14.451 68.724-31.284 11.993-31.284-11.993 31.284-65.061zm-75.613 27.128 44.329 16.994 44.329-16.994 82.439 171.447h-253.536z"/><path d="m386.5 140.625v30h10.125c13.854 0 25.125 11.271 25.125 25.125h30c0-13.854 11.271-25.125 25.125-25.125h10.125v-30h-10.125c-15.797 0-30.065 6.681-40.125 17.363-10.06-10.683-24.328-17.363-40.125-17.363z"/><path d="m90.375 135.5h30c0-13.854 11.271-25.125 25.125-25.125h10.125v-30h-10.125c-15.797 0-30.065 6.681-40.125 17.363-10.06-10.682-24.328-17.363-40.125-17.363h-10.125v30h10.125c13.854 0 25.125 11.271 25.125 25.125z"/><path d="m376.5 90.25c24.882 0 45.125-20.243 45.125-45.125s-20.243-45.125-45.125-45.125-45.125 20.243-45.125 45.125 20.243 45.125 45.125 45.125zm0-60.25c8.34 0 15.125 6.785 15.125 15.125s-6.785 15.125-15.125 15.125-15.125-6.785-15.125-15.125 6.785-15.125 15.125-15.125z"/></g></svg>