<svg id="Capa_1" enable-background="new 0 0 512.008 512.008" height="512" viewBox="0 0 512.008 512.008" width="512" xmlns="http://www.w3.org/2000/svg"><g><path d="m324.263 115.332h30v30h-30z" transform="matrix(.707 -.707 .707 .707 7.209 278.069)"/><path d="m366.866 157.935h30v30.001h-30z" transform="matrix(.707 -.707 .707 .707 -10.438 320.672)"/><path d="m493.274 286.862c-15.64-25.956-21.757-56.943-17.226-87.255l.089-.704c1.164-11.481 9.076-24.446 21.708-35.57l.692-.65c17.362-17.362 17.955-45.784 1.319-63.358-8.457-8.933-19.88-13.945-32.166-14.113-.213-.003-.425-.004-.637-.004-12.05 0-23.354 4.68-31.89 13.217l-10.695 10.695-21.391-21.391 10.252-10.252c17.363-17.362 17.67-45.52 1.321-63.357-16.968-18.514-48.112-19.054-65.317-.238-8.117 9.168-21.04 20.472-36.502 22.255l-.494.065c-30.062 4.487-60.967-1.656-86.996-17.274-16.722-10.088-36.712-14.261-56.285-11.754-19.337 2.478-37.459 11.341-51.008 24.937l-34.258 34.257c73.773 63.941 60.42 179.457 69.415 271.388l-23.657 23.648c-5.067 5.065-12.072 7.963-19.236 7.963-20.584-.626-40.413 17.787-39.97 39.666v35.301c-.106 4.186-3.231 9.75-10.22 10.094-15.263 0-29.614 5.938-40.417 16.726l-19.653 19.625 21.198 21.228 19.653-19.626c5.138-5.13 11.961-7.954 19.257-7.954 20.725.514 40.628-18.064 40.182-40.094v-35.301c.06-4.041 3.356-9.57 9.967-9.666 15.063 0 29.793-6.095 40.448-16.746l23.651-23.642c100.568 9.001 207.467-2.939 271.418 69.433l34.255-34.257c13.834-13.818 22.728-32.19 25.04-51.731 2.287-19.322-1.918-39.05-11.84-55.55zm-34.401 86.075-13.643 13.643c-56.638-46.593-138.536-50.529-211.393-53.967 16.897-6.258 32.7-11.006 45.253-12.295 41.02-4.323 77.758-27.59 103.446-65.515l-24.838-16.824c-14.604 21.561-40.643 48.172-81.714 52.5-22.48 2.31-50.155 12.438-78.591 24.294 11.839-28.38 22.017-56.054 24.335-78.518 4.091-33.785 21.732-61.24 52.438-81.605l-16.582-25c-38.408 25.474-60.498 60.181-65.657 103.154l-.03.27c-1.293 12.705-6.008 28.39-12.336 45.38-.01-.22-.02-.436-.031-.656-3.379-72.504-7.181-154.073-53.912-210.831l13.662-13.661c18.483-18.55 48.162-22.205 70.597-8.672 31.939 19.164 69.809 26.718 106.651 21.274 19.471-2.322 38.44-13.288 54.906-31.733 5.111-4.936 15.179-6.02 21.431.567 5.57 5.885 5.235 15.539-.747 21.521l-31.465 31.465 63.816 63.816 31.909-31.908c5.054-5.131 15.355-6.396 21.692.312 5.486 5.796 5.245 15.247-.479 21.247-24.344 21.628-30.055 43.141-31.264 54.309-5.465 37.086 2.074 75.014 21.246 106.834 13.475 22.413 9.819 52.101-8.7 70.599z"/></g></svg>