<svg id="Capa_1" enable-background="new 0 0 512 512" height="512" viewBox="0 0 512 512" width="512" xmlns="http://www.w3.org/2000/svg"><g><path d="m406.188 241h30v30h-30z"/><path d="m451.438 180.75h30v30h-30z"/><path d="m436.312 301.25h30v30h-30z"/><path d="m74.812 361.5h30v30h-30z"/><path d="m15.562 120.5h30v30h-30z"/><g><path d="m120.062 421.75h30v30h-30z"/><path d="m44.688 0v90.25h45.125c8.34 0 15.125 6.785 15.125 15.125s-6.786 15.125-15.126 15.125h-15v45.125c0 8.34-6.785 15.125-15.125 15.125h-15v90.25h15c8.34 0 15.125 6.785 15.125 15.125v45.125h45.094c8.34 0 15.125 6.785 15.125 15.125v45.125h30.094c8.34 0 15.125 6.785 15.125 15.125v45.125h15c8.34 0 15.125 6.785 15.125 15.125v45.125h120.375v-45.125c0-8.34 6.785-15.125 15.125-15.125h15v-45.125c0-8.34 6.785-15.125 15.125-15.125h30.062v-90.25h-15c-8.34 0-15.125-6.785-15.125-15.125v-45.125h-15c-8.34 0-15.125-6.785-15.125-15.125s6.785-15.125 15.125-15.125h45.188v-45.125c0-8.34 6.785-15.125 15.125-15.125h45.281l-.281-45.125c0-8.34 6.785-15.125 15.125-15.125h15.062v-90.25zm30 60.25v-30.25h391.75v30.25zm226.062 406.625v15.125h-60.375v-15.125c0-5.303-.919-10.395-2.607-15.125h65.59c-1.689 4.73-2.608 9.822-2.608 15.125zm30.125-60.25v15.125h-120.625v-15.125c0-5.303-.919-10.395-2.607-15.125h125.84c-1.689 4.73-2.608 9.822-2.608 15.125zm45.187-45.125h-.062-210.875-.094v-15.125c0-5.303-.919-10.395-2.607-15.125h213.639v30.25zm-271.25-60.25v-15.125c0-5.303-.919-10.395-2.607-15.125h243.732v15.125c0 5.303.919 10.395 2.607 15.125zm213.608-60.25h-243.732v-30.25h243.732c-1.688 4.73-2.607 9.822-2.607 15.125s.918 10.395 2.607 15.125zm57.705-60.25h-273.92c1.688-4.73 2.607-9.822 2.607-15.125v-15.125h273.92c-1.688 4.73-2.607 30.25-2.607 30.25zm60.219-60.25h-304.014c1.688-4.73 2.607-9.822 2.607-15.125s-.919-10.395-2.607-15.125h306.543c-1.698 4.756-2.623 9.879-2.623 15.219z"/></g></g></svg>