<svg id="Capa_1" enable-background="new 0 0 512 512" height="512" viewBox="0 0 512 512" width="512" xmlns="http://www.w3.org/2000/svg"><g><path d="m465.8 359.882-29.043 30.857-30.12-31.999-30.122 32.001-30.125-31.999-30.126 32-30.127-32-30.127 32.001-29.054-30.858-36.783 31.74h-18.146c-5.771-25.653-25.999-45.881-51.652-51.652v-18.146l31.74-36.783-30.858-29.054 32.001-30.127-32-30.127 32-30.126-31.999-30.125 32.001-30.122-31.999-30.12 30.857-29.043-39.875-46.2h-112.243v421.625h38.723c5.771 25.653 25.999 45.881 51.652 51.652v38.723h421.625v-112.243zm-435.8-329.882h68.507l12.125 14.048-33.143 31.193 32.001 30.122-31.999 30.12 32.001 30.127-32 30.124 32 30.129-31.999 30.125 33.142 31.206-20.26 23.479v29.3c-25.653 5.771-45.881 25.999-51.652 51.652h-8.723zm37.044 376.625c0-21.136 17.195-38.331 38.331-38.331s38.331 17.195 38.331 38.331-17.195 38.331-38.331 38.331-38.331-17.195-38.331-38.331zm414.956 75.375h-361.625v-8.723c25.653-5.771 45.881-25.999 51.652-51.652h29.3l23.479-20.26 31.206 33.142 30.125-31.999 30.129 32 30.124-32 30.127 32.001 30.12-31.999 30.122 32.001 31.193-33.143 14.048 12.125z"/><path d="m90.375 391.625h30v30h-30z"/></g></svg>