<svg id="Capa_1" enable-background="new 0 0 512 512" height="512" viewBox="0 0 512 512" width="512" xmlns="http://www.w3.org/2000/svg"><path d="m449.228 482c-23.467 0-45.528-9.139-62.121-25.731-22.259-22.26-51.855-34.519-83.335-34.519h-25.297c13.758-29.789 32.507-56.659 55.934-80.086l18.957-18.957c8.014 2.361 20.165 5.054 33.928 5.053 19.103-.001 41.3-5.193 59.774-23.668 16.401-16.4 28.528-42.295 36.045-76.964 7.631-39.65 5.728-40.883 7.13-62.511-22.669 1.411-22.893-.417-62.512 7.13-34.668 7.517-60.563 19.644-76.964 36.045-31.786 31.785-24.253 74.561-18.615 93.702l-18.958 18.958c-16.084 16.085-30.172 33.64-42.194 52.518v-101.338c7.745-4.062 19.281-10.946 30.808-20.902 26.952-23.279 41.197-52.282 41.197-83.873-2.754-84.393-83.942-162.138-87.005-166.857-17.091 18.799-84.612 90.252-87.005 166.857 0 31.591 14.246 60.594 41.197 83.873 11.526 9.956 23.063 16.839 30.808 20.902v101.338c-12.022-18.877-26.11-36.433-42.195-52.518l-18.958-18.958c5.638-19.141 13.171-61.917-18.614-93.702-16.401-16.401-42.296-28.528-76.964-36.045-39.65-7.631-40.883-5.729-62.512-7.13 1.413 22.669-.417 22.892 7.13 62.511 7.517 34.669 19.644 60.563 36.045 76.964 18.477 18.478 40.669 23.668 59.774 23.668 13.762 0 25.913-2.693 33.928-5.053l18.958 18.958c23.427 23.427 42.176 50.297 55.934 80.086h-25.297c-31.48 0-61.076 12.259-83.335 34.519-16.594 16.591-38.655 25.73-62.122 25.73h-62.772v30h512v-30zm-77.248-252.995c19.615-19.615 59.856-28.659 85.94-32.066-3.408 26.09-12.453 66.327-32.066 85.94-10.912 11.089-28.188 16.594-47.061 14.399l40.148-40.147-21.213-21.213-40.196 40.196c-1.502-14.506.325-32.985 14.448-47.109zm-285.835 53.874c-19.621-19.621-28.664-59.876-32.069-85.96 26.059 3.382 66.261 12.403 85.943 32.086 11.091 10.908 16.601 28.19 14.399 47.06l-40.147-40.147-21.213 21.213 40.196 40.196c-14.506 1.502-32.986-.325-47.109-14.448zm143.025-55.401c-20.023-17.541-30.175-37.937-30.175-60.62-2.001-34.234 32.984-93.155 57.005-121.438 25.388 29.117 59.649 90.966 57.005 121.438 0 22.684-10.152 43.079-30.175 60.62-4.004 3.507-8.033 6.556-11.83 9.166v-99.431h-30v99.431c-3.797-2.611-7.826-5.659-11.83-9.166zm-87.844 254.522c1.627-1.458 3.224-2.961 4.781-4.519 16.593-16.593 38.654-25.731 62.121-25.731h95.544c23.467 0 45.528 9.139 62.121 25.731 1.557 1.557 3.154 3.06 4.781 4.519z"/></svg>