<svg id="Capa_1" enable-background="new 0 0 512 512" height="512" viewBox="0 0 512 512" width="512" xmlns="http://www.w3.org/2000/svg"><path d="m372.458 339.368-72.835-26.685c3.252-3.425 6.104-7.228 8.486-11.34h82.972l55.759 77.062 24.305-17.586-64.741-89.477h-90.217c0-.021.002-.042.002-.062v-30.125c0-.021-.002-.042-.002-.062h70.851l64.741-89.477-24.305-17.586-55.759 77.062h-63.606c-2.767-4.778-6.167-9.142-10.093-12.976 20.036-13.534 33.234-36.454 33.234-62.399 0-6.129-.754-12.082-2.143-17.79l32.268-18.634v-99.293h-30v81.976l-15.111 8.726c-13.736-18.343-35.637-30.234-60.264-30.234s-46.528 11.891-60.264 30.233l-15.111-8.726v-81.975h-30v99.294l32.268 18.634c-1.389 5.707-2.143 11.661-2.143 17.79 0 25.945 13.199 48.865 33.234 62.399-3.926 3.833-7.325 8.198-10.093 12.976h-63.606l-55.759-77.063-24.305 17.586 64.741 89.477h70.851c0 .021-.002.042-.002.062v30.125c0 .021.002.042.002.062h-90.217l-64.741 89.477 24.305 17.586 55.759-77.062h82.972c2.382 4.112 5.234 7.916 8.486 11.34l-72.835 26.685-31.286 93.857-57.731 57.522 21.175 21.253 62.769-62.542 28.964-86.893 20.511-7.515c-2.068 6.866-3.194 14.136-3.194 21.667 0 41.493 33.757 75.25 75.25 75.25s75.25-33.757 75.25-75.25c0-7.531-1.125-14.802-3.194-21.667l20.511 7.515 28.964 86.893 62.769 62.542 21.175-21.252-57.731-57.522zm-161.708-203.65c0-24.951 20.299-45.25 45.25-45.25s45.25 20.299 45.25 45.25-20.299 45.25-45.25 45.25-45.25-20.299-45.25-45.25zm75.438 105.437v30.125c0 16.646-13.542 30.188-30.188 30.188s-30.188-13.542-30.188-30.188v-30.125c0-16.646 13.542-30.188 30.188-30.188s30.188 13.543 30.188 30.188zm-30.188 180.813c-24.951 0-45.25-20.299-45.25-45.25s20.299-45.25 45.25-45.25 45.25 20.299 45.25 45.25-20.299 45.25-45.25 45.25z"/></svg>