<svg id="Capa_1" enable-background="new 0 0 512 512" height="512" viewBox="0 0 512 512" width="512" xmlns="http://www.w3.org/2000/svg"><g><path d="m271.125 331.375h30v45.125h-30z"/><path d="m271.125 180.75h30v30h-30z"/><path d="m271.125 90.375h30v60.125h-30z"/><path d="m271.125 241h30v60.125h-30z"/><path d="m210.875 90.375h30v45.125h-30z"/><path d="m210.875 256.125h30v30h-30z"/><path d="m210.875 316.375h30v60.125h-30z"/><path d="m210.875 165.75h30v60.125h-30z"/><path d="m440.291 0h-70.004l-30.125 30.125h-168.324l-30.125-30.125h-70.004l-71.709 35.854v395.896c7.635 0 10.735 2.422 16.365 6.82 15.314 14.451 47.346 20.171 69.667 0 9.446-9.325 24.224-8.513 32.73 0 15.314 14.451 47.346 20.171 69.667 0 9.444-9.324 24.224-8.514 32.729 0 15.312 14.451 47.345 20.172 69.667 0 9.446-9.325 24.224-8.513 32.73 0 15.313 14.45 47.346 20.172 69.668 0 9.446-9.326 24.228-8.512 32.733 0 7.12 5.562 16.871 13.179 34.837 13.179s27.718-7.617 34.838-13.179c5.63-4.398 8.731-6.821 16.368-6.821v-395.895zm41.709 54.396v44.767l-45.25 45.25-16.581-16.581-24.458-97.832h37.498zm-403.209-24.396h32.438l-20.854 41.709v114.019l-19.234 38.469-41.141-41.141v-128.66zm-43.956 384.93c-1.478-1.155-3.08-2.398-4.835-3.644v-185.805l30.25 30.25v164.084c-8.67 3.638-18.89 1.648-25.415-4.885zm55.415-11.781v-150.089l30.125-60.25v-114.019l19.234-38.469 11.016 11.015v370.085c-5.005-.642-9.769-2.866-13.393-6.494-10.583-9.985-29.152-15.796-46.982-11.779zm182.105 11.781c-9.442 9.326-24.224 8.513-32.727 0-13.006-12.274-38.07-18.239-59.004-7.403v-347.402h150.75v347.493c-16.767-8.379-41.039-8.934-59.019 7.312zm102.399 0c-3.838 3.79-8.557 5.906-13.379 6.51v-370.102l6.999-6.999 24.707 98.83 28.67 28.669v231.476c-15.133-3.504-32.979-1.052-46.997 11.616zm102.409-.001c-7.099 7.009-17.214 8.29-25.413 4.881v-247.972l30.25-30.25v269.696c-1.756 1.246-3.358 2.49-4.837 3.645z"/><path d="m0 482h512v30h-512z"/></g></svg>