<svg id="Capa_1" enable-background="new 0 0 512 512" height="512" viewBox="0 0 512 512" width="512" xmlns="http://www.w3.org/2000/svg"><g><path d="m90.234 271.125h30.281v30h-30.281z"/><path d="m150.484 150.625h30.281v30h-30.281z"/><path d="m326.707 150.625h30.281v30h-30.281z"/><path d="m391.484 271.125h30.281v30h-30.281z"/><path d="m480.785 273.318c-3.318-19.277-14.006-36.056-29.035-47.357v-55.809c0-10.928-1.611-21.485-4.594-31.455 21.467-13.621 34.719-37.22 34.719-63.447v-17.003c0-32.117-26.13-58.247-58.247-58.247-14.767 0-28.855 5.539-39.669 15.597l-48.009 44.653h-159.9l-48.009-44.653c-10.813-10.058-24.902-15.597-39.669-15.597-32.117 0-58.247 26.13-58.247 58.247v17.003c0 26.227 13.253 49.826 34.719 63.447-2.984 9.97-4.594 20.527-4.594 31.455v55.812c-15.028 11.301-25.715 28.078-29.034 47.353-18.096 5.875-31.216 22.9-31.216 42.933v121.51c0 40.936 33.304 74.24 74.24 74.24h363.52c40.937 0 74.24-33.304 74.24-74.24v-121.51c0-20.03-13.119-37.054-31.215-42.932zm-76.394-235.755c18.63-17.03 47.451-2.991 47.484 20.684v17.003c0 14.32-6.572 27.335-17.442 35.743-13.807-21.533-34.915-37.956-59.803-45.749zm-344.266 37.687v-17.003c-.462-23.916 29.788-37.359 47.484-20.684l29.76 27.68c-24.888 7.794-45.996 24.216-59.803 45.749-10.869-8.407-17.441-21.422-17.441-35.742zm30.125 94.902c0-44.059 35.844-79.902 79.902-79.902h171.695c44.059 0 79.902 35.844 79.902 79.902v42.269c-4.889-1.002-9.944-1.546-15.125-1.546-34.8 0-64.157 23.741-72.723 55.88-25.398-6.771-51.525-10.194-77.902-10.194s-52.504 3.423-77.902 10.194c-8.565-32.139-37.923-55.88-72.723-55.88-5.181 0-10.236.544-15.125 1.546v-42.269zm-45.125 130.973h15v-15c0-24.951 20.299-45.25 45.25-45.25s45.25 20.299 45.25 45.25v20.764l19.712-6.523c55.242-18.279 116.084-18.279 171.326 0l19.712 6.523v-20.764c0-24.951 20.299-45.25 45.25-45.25s45.25 20.299 45.25 45.25v15h15c8.34 0 15.125 6.785 15.125 15.125 0 24.951-20.299 45.25-45.25 45.25h-60.25c-18.333 0-36.447-2.933-53.843-8.717-43.159-15.177-90.498-15.176-133.331.005-17.39 5.781-35.499 8.712-53.826 8.712h-60.25c-24.951 0-45.25-20.299-45.25-45.255 0-8.337 6.783-15.12 15.125-15.12zm346.375 90.375h30.25v30.25h-30.25zm-301.25 0h30.25v30.25h-30.25zm347.51 90.5h-363.52c-24.394 0-44.24-19.846-44.24-44.24v-61.43c8.79 6.637 19.072 11.394 30.25 13.664v61.755h90.25v-60.817c16.471-1.231 32.71-4.483 48.447-9.729l.279-.096c35.933-12.769 77.331-12.764 113.584.013l.242.083c15.737 5.246 31.976 8.497 48.447 9.729v60.817h90.25v-61.755c11.178-2.27 21.46-7.028 30.25-13.664v61.429c.001 24.395-19.845 44.241-44.239 44.241z"/></g></svg>