<svg id="Capa_1" enable-background="new 0 0 512.472 512.472" height="512" viewBox="0 0 512.472 512.472" width="512" xmlns="http://www.w3.org/2000/svg"><g><path d="m482.072 209.686c21.255-9.695 32.321-33.533 30.125-56.625l-256-152.825-256 152.825c-1.773 24.843 8.424 45.877 30.125 56.626v16.424c0 11.568 4.38 22.13 11.563 30.125-7.183 7.995-11.563 18.557-11.563 30.125s4.38 22.13 11.563 30.125c-7.183 7.995-11.563 18.557-11.563 30.125s4.38 22.13 11.563 30.125c-7.183 7.995-11.563 18.557-11.563 30.125s4.38 22.13 11.563 30.125c-7.183 7.995-11.563 18.557-11.563 30.125v15.125h-30.125v30h512v-30h-30.125v-15.125c0-11.568-4.38-22.13-11.563-30.125 7.183-7.995 11.563-18.557 11.563-30.125s-4.38-22.13-11.563-30.125c7.183-7.995 11.563-18.557 11.563-30.125s-4.38-22.13-11.563-30.125c7.183-7.995 11.563-18.557 11.563-30.125s-4.38-22.13-11.563-30.125c7.183-7.995 11.563-18.557 11.563-30.125zm-30 76.675c0 8.34-6.785 15.125-15.125 15.125h-45.25v-30.25h45.25c8.34 0 15.125 6.785 15.125 15.125zm0 60.25c0 8.34-6.785 15.125-15.125 15.125h-45.25v-30.25h45.25c8.34 0 15.125 6.785 15.125 15.125zm0 60.25c0 8.34-6.785 15.125-15.125 15.125h-45.25v-30.25h45.25c8.34 0 15.125 6.785 15.125 15.125zm-391.75 0c0-8.34 6.785-15.125 15.125-15.125h165.75v30.25h-165.75c-8.34 0-15.125-6.785-15.125-15.125zm0-60.25c0-8.34 6.785-15.125 15.125-15.125h15.125v30.25h-15.125c-8.34 0-15.125-6.785-15.125-15.125zm0-60.25c0-8.34 6.785-15.125 15.125-15.125h15.125v30.25h-15.125c-8.34 0-15.125-6.785-15.125-15.125zm301.375 15.125h-90.5v-30.25h90.5zm-120.5 60.25h-30.25v-30.25h30.25zm-120.625-30.25h60.375v30.25h-60.375zm120.625-30h-30.25v-30.25h30.25zm-60.25 0h-60.375v-30.25h60.375zm90.25 90.25h26.776v-30h-26.776v-30.25h90.5v90.5h-90.5zm-195.75-150.5c-8.34 0-15.125-6.785-15.125-15.125v-11.394c7.176-.918 14.227-3.323 20.763-7.224l175.112-104.537 175.112 104.537c6.536 3.902 13.587 6.308 20.763 7.226v11.392c0 8.34-6.785 15.125-15.125 15.125zm180.75-206.061 224.717 134.149c-3.96 12.661-21.438 20.41-34.227 12.408l-190.49-113.716-190.49 113.717c-11.498 7.354-29.535 1.672-34.227-12.408zm-195.875 447.061v-15.125c0-8.34 6.785-15.125 15.125-15.125h165.75v30.25zm210.875 0v-30.25h90.5v30.25zm120.5 0v-30.25h45.25c8.34 0 15.125 6.785 15.125 15.125v15.125z"/><path d="m256.197 136.138c-24.882 0-45.125 20.243-45.125 45.125s20.243 45.125 45.125 45.125 45.125-20.243 45.125-45.125-20.243-45.125-45.125-45.125zm0 60.25c-8.34 0-15.125-6.785-15.125-15.125s6.785-15.125 15.125-15.125 15.125 6.785 15.125 15.125-6.785 15.125-15.125 15.125z"/></g></svg>