<svg id="Capa_1" enable-background="new 0 0 512 512" height="512" viewBox="0 0 512 512" width="512" xmlns="http://www.w3.org/2000/svg"><path d="m482 127.396v15.125h-150.75v-30.25h15.125v-30h-180.75v30h15.125v30.25h-60.251v69.038l-21.337 21.337h-99.162v196.834l128.347-102.677 22.941 26.218h44.462c24.882 0 45.125-20.243 45.125-45.125v-15.125h90.375v-60.25h180.75v-105.375zm-271.25-15.125h90.5v30.25h-90.5zm.125 195.875c0 8.34-6.785 15.125-15.125 15.125h-30.849l-13.105-14.977 19.091-15.273h39.988zm90.375-45.125h-140.887l-130.363 104.291v-104.416h81.588l30.125-30.125h159.537zm180.75-60.25h-331.501v-30.25h331.501z"/></svg>