<svg id="Capa_1" enable-background="new 0 0 512.078 512.078" height="512" viewBox="0 0 512.078 512.078" width="512" xmlns="http://www.w3.org/2000/svg"><g><path d="m256.044 150.578c14.969 0 29.477 2.389 43.122 7.099l9.789-28.357c-16.802-5.801-34.604-8.741-52.911-8.741s-36.109 2.94-52.911 8.741l9.789 28.357c13.646-4.711 28.154-7.099 43.122-7.099z"/><path d="m256.044 210.828c14.969 0 29.477 2.389 43.122 7.099l9.789-28.357c-16.802-5.801-34.604-8.741-52.911-8.741s-36.109 2.94-52.911 8.741l9.789 28.357c13.646-4.711 28.154-7.099 43.122-7.099z"/><path d="m120.404 271.203h30.281v30h-30.281z"/><path d="m120.404 60.328h30.281v30h-30.281z"/><path d="m361.404 60.328h30.281v30h-30.281z"/><path d="m361.404 271.203h30.281v30h-30.281z"/><path d="m511.803 348.831c.434-36.631-23.914-71.088-61.311-76.553-4.078-21.696-17.501-40.133-35.91-50.968.003-.026.005-.043.005-.043-14.717-8.701-23.128-23.314-23.076-40.093.052-16.966 8.951-32.676 23.31-41.048 24.35-14.408 38.468-40.927 36.847-69.208-2.213-38.563-32.989-68.983-71.589-70.759-33.342-2.159-66.604 21.165-75.783 53.953-31.196-10.565-65.306-10.565-96.504 0-8.686-31.647-41.798-56.334-75.782-53.953-38.6 1.775-69.377 32.195-71.589 70.76-1.622 28.28 12.497 54.799 36.822 69.193 14.929 8.871 23.428 23.766 23.316 40.862-.111 16.968-8.678 31.999-22.917 40.21l-.089.052c.005-.003.019.004.035.016-18.457 10.825-31.917 29.287-36.001 51.017-36.504 5.301-61.791 39.026-61.312 76.554 0 30.367 15.869 61.023 46.497 72.819-1.01 4.907-1.541 9.986-1.541 15.187 0 41.493 33.757 75.25 75.25 75.25h271.125c41.493 0 75.25-33.757 75.25-75.25 0-5.199-.531-10.276-1.54-15.181 30.622-11.8 46.487-42.454 46.487-72.817zm-399.259-234.524c-14.653-8.671-23.149-24.639-22.172-41.671 1.329-23.167 19.822-41.442 43.016-42.509 24.316-1.725 47.963 19.671 47.406 45.2l.013 24.668c58.407-34.316 100.343-29.575 150.487.445v-25.112c-.587-24.338 21.911-46.957 47.406-45.2 23.194 1.066 41.688 19.342 43.017 42.508.977 17.033-7.52 33.001-22.09 41.623-23.427 13.659-38.031 39.265-38.115 66.823-.033 10.699 2.131 20.99 6.198 30.404-28.533 2.857-55.468 25-63.41 53.501-31.213-10.576-65.337-10.573-96.547.009-8.391-28.523-33.268-50.047-63.555-53.531 4.058-9.408 6.291-19.696 6.36-30.293.181-27.617-14.021-52.608-38.014-66.865zm279.063 367.771h-271.125c-24.951 0-45.25-20.299-45.25-45.25 0-22.617 16.679-41.411 38.383-44.729l63.039 78.729 63.456-79.249h31.87l63.456 79.249 63.039-78.729c21.704 3.318 38.383 22.112 38.383 44.729-.001 24.951-20.3 45.25-45.251 45.25zm-239.976-90.5h50.046l-25.023 31.251zm158.781 0h50.046l-25.023 31.251zm142.916 2.278c-13.612-19.492-36.195-32.279-61.721-32.279h-271.125c-25.583 0-48.212 12.843-61.814 32.41-19.476-6.923-28.392-26.106-28.392-45.166-.083-25.563 16.918-48.373 45.019-47.624h15v-15c0-24.945 20.299-45.24 45.25-45.24s45.25 20.295 45.25 45.24l.008 23.633c62.832-33.292 97.924-27.947 150.482.639v-24.271c-.531-23.456 20.502-45.76 45.25-45.24 24.951 0 45.25 20.299 45.25 45.25v15h15c27.026-.642 45.066 20.674 45.019 47.623-.001 24.775-12.69 39.298-28.476 45.025z"/></g></svg>