<svg id="Capa_1" enable-background="new 0 0 512 512" height="512" viewBox="0 0 512 512" width="512" xmlns="http://www.w3.org/2000/svg"><path d="m436.75 33.119h-30.125c-24.922 0-45.125 20.203-45.125 45.125v45.125h30.125v15.125c0 19.624 12.596 36.354 30.125 42.552v13.821c0 10.495-8.508 19.003-19.003 19.003-13.917-28.208-42.971-47.666-76.495-47.666h-20.212l2.856-16.657h17.479v-30h-42.771l-8 46.657h-39.206l-8-46.657h-42.771v30h17.479l2.856 16.657h-20.212c-33.524 0-62.577 19.458-76.495 47.666-10.495 0-19.003-8.508-19.003-19.003v-13.821c17.529-6.198 30.125-22.927 30.125-42.552v-15.125h30.123v-45.125c0-24.922-20.203-45.125-45.125-45.125h-30.125c-41.559 0-75.25 33.691-75.25 75.25v90.375c0 56.869 45.286 103.354 101.689 105.303.893 6.476 2.298 12.822 4.187 19.03-25.583 6.009-47.433 22.983-59.567 47.25l-9.441 18.883 26.832 13.417 9.441-18.883c8.951-17.902 25.839-29.852 45.254-32.511 3.833 6.427 8.268 12.656 13.3 18.667-21.184 7.697-38.967 23.245-49.471 44.252l-9.442 18.883 26.832 13.418 9.443-18.884c9.425-18.85 27.649-31.094 48.358-32.849 5.177 4.108 10.69 8.076 16.546 11.892-16.808 8.524-30.784 22.313-39.613 39.969l-9.441 18.884 26.834 13.416 9.44-18.883c9.752-19.504 28.926-31.937 50.523-32.993 26.544 11.506 37.784 13.793 44.294 15.544 7.24-1.923 17.524-4.021 44.292-15.543 21.591 1.062 40.755 13.493 50.504 32.991l9.441 18.884 26.834-13.416-9.442-18.884c-8.825-17.652-22.796-31.439-39.6-39.963 5.853-3.813 11.362-7.779 16.537-11.883 20.644 1.803 38.8 14.032 48.202 32.835l9.441 18.883 26.832-13.416-9.44-18.883c-10.482-20.964-28.214-36.489-49.34-44.203 5.029-6.003 9.463-12.222 13.295-18.64 19.191 2.803 35.853 14.695 44.722 32.434l9.442 18.883 26.832-13.418-9.441-18.882c-12.049-24.097-33.676-41.007-59.027-47.127 1.909-6.248 3.327-12.634 4.226-19.154 56.406-1.949 101.692-48.434 101.692-105.303v-90.375c0-41.559-33.691-75.25-75.25-75.25zm-45.25 60.25v-15.125c0-8.34 6.785-15.125 15.125-15.125h30.125c19.695 0 36.493 12.649 42.695 30.25h-87.82zm30.125 30h60.375v30.25h-45.25c-8.34 0-15.125-6.785-15.125-15.125zm-331.25 15.125c0 8.34-6.785 15.125-15.125 15.125h-45.25v-30.25h60.375zm-15.125-75.375h30.125c8.34 0 15.125 6.785 15.125 15.125v15.125h-.125-87.82c6.202-17.6 23-30.25 42.695-30.25zm-45.25 135.625v-15.125h30.25v15.125c0 23.361 17.844 42.63 40.618 44.899-.597 4.044-.315 26.009-.373 30.301-39.294-2.526-70.495-35.279-70.495-75.2zm351.505 87.838c1.048 72.176-80.674 111.657-125.505 124.932-62.079-18.797-126.303-61.355-125.505-124.932v-35.127c0-30.466 24.786-55.252 55.252-55.252h140.506c30.466 0 55.252 24.786 55.252 55.252zm30-12.638c-.113-7.567.318-22.903-.373-30.301 22.774-2.269 40.618-21.538 40.618-44.899v-15.125h30.25v15.125c0 39.921-31.201 72.674-70.495 75.2z"/></svg>