<svg id="Capa_1" enable-background="new 0 0 512.093 512.093" height="512" viewBox="0 0 512.093 512.093" width="512" xmlns="http://www.w3.org/2000/svg"><path d="m409.556 451.8h30.77c33.452 0 60.668-27.216 60.668-60.669v-29.581h-60.769c-11.184 0-21.663 3.054-30.669 8.354v-49.44c3.818-2.839 8.699-6.819 13.639-11.806 9.579-9.67 16.196-20.013 19.616-30.527 10.814 2.294 23.08 1.735 36.247-1.725 20.408-6.023 22.624-8.716 32.849-14.103-.448-12.483.77-14.132-4.211-35.501-3.585-13.131-9.232-24.033-16.63-32.252 15.202-14.191 22.298-52.608 20.841-67.753-11.034-5.852-11.853-7.732-32.849-14.104-13.164-3.46-25.429-4.021-36.247-1.724-3.42-10.515-10.037-20.857-19.616-30.528-15.421-14.663-18.862-15.234-28.639-21.397-10.585 6.631-12.623 6.4-28.639 21.397-9.579 9.671-16.196 20.013-19.616 30.527-10.816-2.296-23.084-1.735-36.246 1.725-20.41 6.023-22.625 8.717-32.85 14.104.449 12.483-.77 14.132 4.211 35.5 3.586 13.131 9.234 24.033 16.63 32.253-7.396 8.219-13.044 19.121-16.63 32.252-4.989 20.688-3.763 23.952-4.211 35.501 11.035 5.852 11.854 7.732 32.85 14.103 13.165 3.46 25.431 4.021 36.246 1.724 3.42 10.516 10.037 20.858 19.616 30.528 4.939 4.987 9.821 8.967 13.639 11.806v161.586h-247.205v-30.25h30.77c33.452 0 60.668-27.216 60.668-60.669v-29.581h-60.769c-11.184 0-21.663 3.054-30.669 8.354v-108.441c3.818-2.839 8.699-6.819 13.639-11.806 9.579-9.67 16.196-20.013 19.616-30.527 10.814 2.294 23.08 1.735 36.247-1.725 20.408-6.023 22.624-8.716 32.849-14.103-.448-12.483.77-14.132-4.211-35.501-3.585-13.131-9.232-24.033-16.63-32.252 15.202-14.191 22.298-52.608 20.841-67.753-11.034-5.852-11.853-7.732-32.849-14.104-13.164-3.46-25.429-4.021-36.247-1.724-3.42-10.515-10.037-20.857-19.616-30.528-15.422-14.662-18.863-15.233-28.639-21.396-10.585 6.631-12.623 6.4-28.639 21.397-9.579 9.671-16.196 20.013-19.616 30.527-10.816-2.296-23.084-1.735-36.246 1.725-20.411 6.023-22.625 8.717-32.85 14.104.449 12.483-.77 14.132 4.211 35.5 3.586 13.131 9.234 24.033 16.63 32.253-7.396 8.219-13.044 19.121-16.63 32.252-4.989 20.687-3.763 23.951-4.211 35.501 11.035 5.852 11.854 7.732 32.85 14.103 13.165 3.46 25.431 4.021 36.246 1.724 3.42 10.516 10.037 20.858 19.616 30.528 4.939 4.987 9.821 8.967 13.639 11.806v48.191c-9.006-5.3-19.484-8.354-30.668-8.354h-60.77v29.581c0 33.453 27.216 60.669 60.669 60.669h30.769v90.5h-102.351v30h512v-30h-102.351zm30.669-60.25h30.766c-.226 16.718-13.896 30.25-30.665 30.25h-30.767c.224-16.719 13.895-30.25 30.666-30.25zm-277.205 0h30.766c-.226 16.718-13.896 30.25-30.665 30.25h-30.767c.223-16.719 13.894-30.25 30.666-30.25zm-91.438-30c-16.771 0-30.44-13.532-30.666-30.25h30.767c16.771 0 30.441 13.531 30.665 30.25zm89.875-176.485-4.754-3.169c10.494-8.924 17.922-21.334 20.488-35.427l5.107 2.526c13.591 5.925 19.147 22.527 21.295 36.346-13.176 4.857-29.335 8.636-42.136-.276zm0-99.032c12.4-8.968 29.487-4.939 42.135-.275-2.021 12.247-7.013 30.295-21.302 36.351l-5.099 2.525c-2.565-14.094-9.994-26.506-20.489-35.431zm-44.071-50.095c9.846 8.013 22.798 21.932 20.782 36.653l-.364 5.665c-6.396-2.291-13.28-3.547-20.453-3.547-7.172 0-14.054 1.256-20.449 3.546l-.368-5.673c-2.016-13.716 11.281-29.558 20.852-36.644zm-44.137 149.124c-12.406 8.972-29.487 4.942-42.14.279 2.023-12.241 7.009-30.29 21.295-36.347l5.106-2.526c2.566 14.094 9.995 26.505 20.49 35.428zm-15.739-60.428-5.099-2.525c-13.613-5.937-19.162-22.554-21.309-36.395 11.859-4.905 31.643-8.322 42.146.322l4.752 3.165c-10.495 8.925-17.925 21.337-20.49 35.433zm29 10.916c0-17.006 13.835-30.841 30.841-30.841s30.841 13.835 30.841 30.841-13.835 30.841-30.841 30.841-30.841-13.836-30.841-30.841zm30.841 99.582c-10.446-8.691-22.401-21.437-20.816-36.616l.367-5.671c6.395 2.289 13.277 3.546 20.449 3.546 7.174 0 14.058-1.257 20.454-3.547l.364 5.664c1.865 15.488-11.285 28.782-20.818 36.624zm321.312 8.934-4.754-3.169c10.494-8.924 17.922-21.334 20.488-35.427l5.107 2.526c13.591 5.925 19.147 22.527 21.295 36.346-13.177 4.857-29.336 8.637-42.136-.276zm0-99.032c12.4-8.968 29.487-4.939 42.135-.275-2.021 12.247-7.013 30.295-21.302 36.351l-5.099 2.525c-2.565-14.094-9.994-26.506-20.489-35.431zm-44.072-50.095c9.846 8.013 22.798 21.932 20.782 36.653l-.364 5.665c-6.396-2.291-13.28-3.547-20.454-3.547-7.172 0-14.054 1.256-20.449 3.546l-.368-5.673c-2.014-13.716 11.283-29.558 20.853-36.644zm-44.136 149.124c-12.406 8.972-29.487 4.942-42.14.279 2.023-12.241 7.009-30.29 21.295-36.347l5.106-2.526c2.566 14.094 9.995 26.505 20.49 35.428zm-15.74-60.428-5.099-2.525c-13.613-5.937-19.162-22.554-21.309-36.395 11.859-4.905 31.643-8.322 42.146.322l4.751 3.166c-10.494 8.924-17.923 21.337-20.489 35.432zm29 10.916c0-17.006 13.835-30.841 30.841-30.841s30.841 13.835 30.841 30.841-13.835 30.841-30.841 30.841-30.841-13.835-30.841-30.841zm10.025 62.966.367-5.671c6.395 2.289 13.277 3.546 20.449 3.546 7.174 0 14.058-1.257 20.454-3.547l.364 5.664c1.866 15.489-11.284 28.784-20.817 36.625-10.447-8.693-22.402-21.438-20.817-36.617z"/></svg>