<svg id="Capa_1" enable-background="new 0 0 512.075 512.075" height="512" viewBox="0 0 512.075 512.075" width="512" xmlns="http://www.w3.org/2000/svg"><g><path d="m210.92 65.825h29.999v30h-29.999z"/><path d="m271.167 65.825h29.998v30h-29.998z"/><path d="m78.59 161.866h29.998v30h-29.998z" transform="matrix(.31 -.951 .951 .31 -103.583 210.984)"/><path d="m59.903 219.142h29.998v30h-29.998z" transform="matrix(.31 -.951 .951 .31 -170.924 232.73)"/><path d="m110.688 375.305h29.999v29.998h-29.999z" transform="matrix(.586 -.81 .81 .586 -264.176 263.256)"/><path d="m159.49 410.633h30v29.998h-30z" transform="matrix(.586 -.81 .81 .586 -272.603 317.384)"/><path d="m403.486 161.867h30v29.998h-30z" transform="matrix(.951 -.31 .31 .951 -34.219 138.518)"/><path d="m422.172 219.143h30v29.998h-30z" transform="matrix(.951 -.31 .31 .951 -51.064 147.149)"/><path d="m371.388 375.305h29.998v29.999h-29.998z" transform="matrix(.81 -.586 .586 .81 -155.466 300.708)"/><path d="m322.586 410.632h29.999v30h-29.999z" transform="matrix(.81 -.586 .586 .81 -185.456 278.817)"/><path d="m501.403 181.533c-2.238-4.796-22.019-47.564-38.168-70.386-13.692-18.863-34.898-29.688-58.18-29.7h-.039c-6.895 0-13.605.958-19.993 2.786-.229-6.647-1.388-13.333-3.518-19.899-7.189-22.166-24.041-39.021-46.235-46.243-25.591-8.191-75.32-14.154-79.235-14.62-5.254.64-52.048 6.183-78.751 14.46-22.18 7.168-39.047 23.973-46.278 46.104-2.188 6.698-3.368 13.523-3.577 20.306-6.501-1.9-13.339-2.894-20.369-2.894h-.039c-23.282.012-44.488 10.837-58.18 29.7-15.594 21.707-36.504 66.794-38.168 70.386-.772 3.867-10.525 52.991-10.673 79.862-.016 23.409 10.842 44.74 29.79 58.524 5.596 4.071 11.604 7.255 17.861 9.54-3.75 5.551-6.77 11.679-8.912 18.294-7.171 22.15-3.415 45.661 10.304 64.505 15.837 21.53 52.275 55.329 55.178 58.02 4.621 2.57 46.051 25.779 72.676 34.788 20.543 6.922 45.919 3.712 64.591-10.196 5.584-4.057 10.454-8.781 14.55-14.021 4.096 5.24 8.965 9.965 14.55 14.021 18.648 13.554 42.073 17.326 64.591 10.196 25.514-8.429 69.235-32.861 72.676-34.788 3.872-3.608 38.452-35.618 55.178-58.02 13.719-18.844 17.475-42.354 10.304-64.506-2.142-6.615-5.161-12.742-8.911-18.292 6.257-2.285 12.264-5.469 17.861-9.541 18.948-13.784 29.806-35.115 29.79-58.524-.151-26.871-9.903-75.995-10.674-79.862zm-341.882-108.181c4.214-12.898 14.051-22.693 26.987-26.874 19.357-6.257 60.463-11.646 69.521-12.784 9.092 1.147 50.507 6.595 69.957 12.924 12.956 4.216 22.79 14.047 26.982 26.972 4.165 12.84 1.997 26.468-5.948 37.392l-23.919 32.882c-19.785-11.316-42.679-17.792-67.058-17.792-24.275 0-47.076 6.422-66.803 17.649l-23.85-32.946c-7.924-10.945-10.063-24.585-5.869-37.423zm96.522 293.704c-58.169 0-105.493-47.324-105.493-105.493s47.324-105.492 105.493-105.492c58.168 0 105.492 47.323 105.492 105.492s-47.324 105.493-105.492 105.493zm-208.605-71.396c-11.091-8.069-17.447-20.55-17.438-34.245.014-20.477 7.676-61.515 9.405-70.514 3.893-8.258 21.777-45.686 33.713-62.131 7.986-11.003 20.349-17.316 33.917-17.323h.022c13.498 0 25.792 6.261 33.736 17.183l23.943 32.915c-27.136 24.794-44.187 60.451-44.187 100.019 0 9.42.969 18.617 2.807 27.5l-38.621 12.597c-12.759 4.138-26.363 1.954-37.297-6.001zm176.417 174.937c-10.992 7.985-24.728 10.149-37.685 5.938-19.453-6.322-56.147-26.278-64.175-30.699-6.654-6.25-36.739-34.807-48.7-51.235-8.002-10.99-10.195-24.697-6.016-37.606 4.16-12.85 13.912-22.622 26.758-26.812l38.642-12.604c19.374 42.498 60.081 73.297 108.352 78.642v40.635c0 .075.003.149.003.225-.068 13.42-6.317 25.627-17.179 33.516zm214.924-75.997c-11.974 16.447-42.045 44.985-48.699 51.235-8.028 4.42-44.723 24.377-64.175 30.699-12.956 4.213-26.692 2.048-37.686-5.938-10.862-7.889-17.111-20.097-17.18-33.517 0-.075.003-.149.003-.225v-40.634c48.274-5.342 88.985-36.141 108.361-78.641l38.633 12.601c12.846 4.189 22.599 13.962 26.758 26.811 4.18 12.911 1.987 26.619-6.015 37.609zm25.858-98.94c-10.934 7.954-24.538 10.138-37.322 5.993l-38.588-12.586c1.839-8.884 2.808-18.083 2.808-27.503 0-39.57-17.053-75.23-44.193-100.024l23.937-32.906c.001-.001.002-.003.003-.005 7.944-10.92 20.238-17.181 33.735-17.181h.022c13.569.007 25.931 6.32 33.917 17.323 11.937 16.445 29.82 53.872 33.713 62.13 1.729 9 9.392 50.061 9.406 70.516.009 13.692-6.347 26.174-17.438 34.243z"/><path d="m256.043 186.317c-41.491 0-75.247 33.755-75.247 75.246s33.755 75.246 75.247 75.246c41.491 0 75.246-33.755 75.246-75.246s-33.756-75.246-75.246-75.246zm0 120.492c-24.949 0-45.247-20.297-45.247-45.246s20.297-45.246 45.247-45.246c24.949 0 45.246 20.297 45.246 45.246s-20.298 45.246-45.246 45.246z"/></g></svg>