<svg id="Capa_1" enable-background="new 0 0 512 512" height="512" viewBox="0 0 512 512" width="512" xmlns="http://www.w3.org/2000/svg"><path d="m511.64 333.02c-1.91-16.77-11.21-31.51-25.51-40.45l-114.2-71.37c.78-1.5 1.48-3.02 2.12-4.57l67.56 2.79 46.97-46.97-21.22-21.22-37.66 37.67-51.44-2.12c-.06-.62-.13-1.23-.22-1.84 9.67-1.35 18.6-5.76 25.62-12.78 17.59-17.59 17.59-46.22 0-63.82-17.6-17.59-46.23-17.59-63.82 0-7.2 7.2-11.44 16.24-12.75 25.62-.62-.09-1.25-.15-1.87-.22l-2.12-51.44 37.67-37.66-21.21-21.22-46.98 46.97 2.79 67.56c-1.54.64-3.07 1.34-4.57 2.12l-71.37-114.2c-8.94-14.3-23.68-23.6-40.45-25.51-16.76-1.91-33.22 3.84-45.14 15.77l-38.92 38.92 57.99 57.99c-16.44 3.66-30.77 13.57-40.05 27.92l-28.31 43.76 115.32 47.57c-3.57 7.78-5.47 16.3-5.47 25.12 0 10.95 2.91 21.45 8.35 30.62l-202.75 202.76 21.21 21.21 202.76-202.76c9.41 5.55 20.01 8.33 30.62 8.33 8.58 0 17.16-1.83 25.11-5.46l47.58 115.34 43.76-28.31c14.35-9.28 24.26-23.61 27.92-40.05l57.99 57.99 38.92-38.92c11.93-11.93 17.68-28.38 15.77-45.14zm-139.9-208.19c8.52 0 15.43 6.91 15.43 15.43 0 8.51-6.91 15.42-15.43 15.42-8.51 0-15.42-6.91-15.42-15.42 0-8.52 6.91-15.43 15.42-15.43zm-234.4-69.78 17.71-17.71c5.43-5.43 12.91-8.04 20.54-7.17 7.63.86 14.33 5.1 18.4 11.6l73.51 117.62-12.91 12.9-41.92-41.91zm81.77 152.73-89.79-37.04 8.73-13.49c5.69-8.8 14.93-14.48 25.35-15.58 10.42-1.11 20.65 2.51 28.06 9.92l41.92 41.92zm56.83 70.98c-11.77 11.77-30.93 11.77-42.7 0-5.7-5.71-8.84-13.29-8.84-21.35s3.14-15.64 8.84-21.34l63.91-63.91c11.42-11.42 31.29-11.4 42.69.01 11.77 11.77 11.77 30.91 0 42.68zm94.39 69.84c-1.1 10.42-6.78 19.66-15.58 25.36l-13.49 8.72-37.04-89.79 14.27-14.27 41.92 41.92c7.41 7.41 11.03 17.64 9.92 28.06zm104.33 8.35-17.71 17.71-117.24-117.25 12.91-12.91 117.61 73.51c6.51 4.07 10.74 10.78 11.6 18.4.87 7.63-1.74 15.11-7.17 20.54z"/></svg>