<svg id="Capa_1" enable-background="new 0 0 512 512" height="512" viewBox="0 0 512 512" width="512" xmlns="http://www.w3.org/2000/svg"><path d="m477.406 482 22.594-180.75c-35.799-2.036-63.243 6.521-84.836 27.411v-112.953c17.529-6.198 30.125-22.927 30.125-42.552v-60.25c0-19.624-12.596-36.354-30.125-42.552v-32.698h-30v32.698c-17.529 6.198-30.125 22.927-30.125 42.552v60.25c0 19.624 12.596 36.354 30.125 42.552v169.078c-22.677-20.984-50.149-24.546-77.456-23.286l15.063 120.5h-51.694v-213.617c17.529-6.198 30.125-22.927 30.125-42.552v-60.25c0-19.624-12.596-36.354-30.125-42.552v-32.698h-30v32.698c-17.529 6.198-30.125 22.927-30.125 42.552v60.25c0 19.624 12.596 36.354 30.125 42.552v213.617h-44.468l22.594-180.75c-35.799-2.036-63.243 6.521-84.835 27.411v-150.609c17.529-6.198 30.125-22.927 30.125-42.552v-60.25c0-19.624-12.596-36.354-30.125-42.552v-32.698h-30v32.698c-17.53 6.198-30.126 22.928-30.126 42.552v60.25c0 19.624 12.596 36.354 30.125 42.552v90.359c-29.634-28.121-59.075-28.098-92.367-27.411l30.125 241h-42.125v30h512v-30zm-236.455-316.419c0-8.34 6.785-15.125 15.125-15.125s15.125 6.785 15.125 15.125v60.25c0 8.34-6.785 15.125-15.125 15.125s-15.125-6.785-15.125-15.125zm-136.709-90.331c0-8.34 6.785-15.125 15.125-15.125s15.125 6.785 15.125 15.125v60.25c0 8.34-6.785 15.125-15.125 15.125s-15.125-6.785-15.125-15.125zm-31.884 406.75-26.291-210.331c32.908 4.651 58.3 33.003 58.3 67.175v60.25 82.906zm62.009 0v-82.906c0-31.443 21.502-57.959 50.574-65.617l-18.566 148.523zm250.672-369.094c0-8.34 6.785-15.125 15.125-15.125s15.125 6.785 15.125 15.125v60.25c0 8.34-6.785 15.125-15.125 15.125s-15.125-6.785-15.125-15.125zm-32.034 369.094-10.997-87.97c24.85 7.456 43.005 30.538 43.005 57.782v30.188zm62.159 0v-45.25-37.656c0-31.443 21.502-57.959 50.573-65.617l-18.565 148.523z"/></svg>