<svg id="Capa_1" enable-background="new 0 0 511.998 511.998" height="512" viewBox="0 0 511.998 511.998" width="512" xmlns="http://www.w3.org/2000/svg"><g><path d="m506.831 243.101 5.167-18.946c-33.944 1.837-60.439-4.194-81.727-25.718l-40.208-40.208 35.618-35.618-85.089-85.089-35.618 35.618-21.294-21.294-25.785 25.785c-30.16-6.201-60.891 24.072-54.812 54.812l-25.785 25.785 21.294 21.294-15.155 15.155c-12.541 12.541-19.448 29.216-19.449 46.954 0 9.724-3.787 18.865-10.662 25.74l-153.326 153.325 31.899 31.899c30.795 31.17 82.082 28.452 110.774-4.393-1.346-24.875 7.624-50.475 25.718-68.302l115.29-115.29 17.051 17.051 10.607-10.607c17.921-14.333 35.884 10.033 18.037 24.846l-9.302 7.359c23.362 44.805 12.855 69.82.148 106.786 53.259-12.43 93.682-31.369 128.012-65.972 27.938-27.939 48.201-62.854 58.597-100.972zm-166.24-163.154 42.663 42.663-14.405 14.405-42.663-42.663zm-287.479 351.434-10.685-10.685 132.113-132.113c12.541-12.541 19.448-29.216 19.449-46.954-.598-12.046 7.646-24.033 16.884-31.963 3.931 9.43 9.703 18.091 17.136 25.524l.036.036c7.426 7.416 16.076 13.177 25.492 17.102l-106.359 106.358c-20.617 20.617-32.651 47.532-34.308 76.406-17.728 13.818-43.464 12.583-59.758-3.711zm310.264-65.9c1.766-18.368-.608-36.924-7.049-54.431 28.829-36.247-6.438-90.252-53.802-70.024l-12.597-12.597c-33.848 2.25-57.157-23.725-55.177-55.177l-15.027-15.027 17.627-17.627c-13.506-24.894 5.127-41.484 28.7-28.7l17.627-17.627 125.378 125.378c17.451 17.451 39.412 28.753 63.256 32.817-9.873 26.351-25.323 50.424-45.292 70.393-18.249 18.25-39.931 32.728-63.644 42.622z"/><path d="m279.286 153.994h30v30h-30z" transform="matrix(.707 -.707 .707 .707 -33.302 257.588)"/></g></svg>