<svg id="Capa_1" enable-background="new 0 0 512 512" height="512" viewBox="0 0 512 512" width="512" xmlns="http://www.w3.org/2000/svg"><path d="m347.424 278.23c4.549-7.912 8.095-16.468 10.476-25.493l91.615-45.807 62.485-124.972-26.832-13.416-58.015 116.027-66.1 33.051c-.995-12.776-4.282-24.916-9.443-36.017l39.89-39.89v-141.713h-30v129.287l-26.705 26.705c-9.011-10.149-19.946-18.55-32.23-24.627 12.043-17.138 18.685-37.846 18.685-59.388h-30c0 18.666-6.994 36.41-19.381 49.717-5.177-.785-10.476-1.194-15.869-1.194s-10.692.409-15.869 1.194c-12.386-13.307-19.381-31.051-19.381-49.717h-30c0 21.542 6.642 42.25 18.685 59.388-12.284 6.077-23.219 14.478-32.23 24.627l-26.705-26.705v-129.287h-30v141.713l39.89 39.89c-5.161 11.101-8.449 23.242-9.443 36.017l-66.1-33.051-58.015-116.027-26.832 13.416 62.485 124.973 91.615 45.807c2.381 9.025 5.928 17.582 10.476 25.493h-99.835l-64.741 89.476 24.305 17.586 55.759-77.062h110.279c5.245 4.19 10.897 7.89 16.888 11.031-7.076 6.038-13.032 13.35-17.485 21.595l-95.008 31.669-63.029 126.058 26.832 13.416 57.472-114.942 64.763-21.588c-.005.344-.026.685-.026 1.031 0 41.493 33.757 75.25 75.25 75.25s75.25-33.757 75.25-75.25c0-.346-.021-.686-.026-1.031l64.763 21.588 57.472 114.942 26.832-13.416-63.028-126.058-95.008-31.669c-4.453-8.245-10.409-15.557-17.485-21.595 5.99-3.141 11.643-6.841 16.888-11.031h110.279l55.759 77.062 24.304-17.586-64.741-89.477zm-46.174 98.27c0 24.951-20.299 45.25-45.25 45.25s-45.25-20.299-45.25-45.25 20.299-45.25 45.25-45.25 45.25 20.299 45.25 45.25zm-45.25-75.25c-41.562 0-75.375-33.813-75.375-75.375s33.813-75.375 75.375-75.375 75.375 33.813 75.375 75.375-33.813 75.375-75.375 75.375z"/></svg>