<svg id="Capa_1" enable-background="new 0 0 511.967 511.967" height="512" viewBox="0 0 511.967 511.967" width="512" xmlns="http://www.w3.org/2000/svg"><g><path d="m493.64 271.76-53.1-119.473 18.826-59.631c8.037-25.439 1.312-52.961-17.554-71.827-27.773-27.772-72.963-27.772-100.736 0l-20.111 20.11c-20.578-7.067-42.487-10.848-64.982-10.848s-44.404 3.781-64.982 10.848l-20.11-20.11c-27.773-27.772-72.963-27.772-100.736 0-18.866 18.866-25.592 46.388-17.556 71.824l18.827 59.634-53.099 119.473c-12.804 28.808-8.523 61.995 11.17 86.611l91.363 114.203c2.827 22.183 21.809 39.392 44.748 39.392h180.75c22.939 0 41.921-17.209 44.748-39.392l91.363-114.203c19.694-24.617 23.974-57.804 11.171-86.611zm-131.351-229.717c16.076-16.077 42.234-16.075 58.311 0 10.919 10.92 14.812 26.851 10.16 41.578l-10.248 32.458c-18.225-26.187-42.319-47.434-70.004-62.256zm-270.922 0c16.077-16.077 42.235-16.075 58.311 0l11.781 11.78c-27.685 14.822-51.779 36.069-70.004 62.256l-10.249-32.461c-4.651-14.725-.758-30.655 10.161-41.575zm164.616 348.069c-3.876-1.901-9.26-4.782-14.536-8.401-11.54-7.917-15.651-14.632-15.651-18.276 0-6.416 0-17.155 30.188-17.155s30.188 10.739 30.188 17.155c0 3.645-4.111 10.36-15.651 18.276-5.279 3.619-10.665 6.501-14.538 8.401zm105.5 76.73c0 8.34-6.785 15.125-15.125 15.125h-75.375v-65.813c21.008-9.23 47.156-33.114 45.188-52.72 0-21.453-11.149-32.663-20.503-38.29-17.539-11.719-61.256-11.833-79.369 0-9.354 5.626-20.503 16.837-20.503 38.29-1.134 22.003 24.285 42.698 45.188 52.72v65.813h-75.375c-8.34 0-15.125-6.785-15.125-15.125v-90.375c0-58.173 47.327-105.5 105.5-105.5s105.5 47.327 105.5 105.5v90.375zm97.561-127.212-67.561 84.45v-47.613c0-74.715-60.785-135.5-135.5-135.5s-135.5 60.785-135.5 135.5v47.613l-67.561-84.45c-12.661-15.827-15.413-37.165-7.182-55.686l54.51-122.646c27.324-61.481 88.453-101.207 155.732-101.207s128.408 39.726 155.732 101.207l54.51 122.646c8.233 18.521 5.481 39.859-7.18 55.686z"/><path d="m150.608 180.717h30v30h-30z"/><path d="m331.358 180.717h30v30h-30z"/></g></svg>