<svg id="Capa_1" enable-background="new 0 0 512 512" height="512" viewBox="0 0 512 512" width="512" xmlns="http://www.w3.org/2000/svg"><g><path d="m210.875 301.25h30v30h-30z"/><path d="m271.125 301.25h30v30h-30z"/><path d="m451.104 242.374c-.889-9.35-2.714-18.531-5.395-27.481 22.148-19.332 36.166-47.755 36.166-79.393 0-58.104-47.271-105.375-105.375-105.375-42.477 0-79.16 25.266-95.821 61.556-8.125-.862-16.362-1.306-24.679-1.306-8.316 0-16.551.451-24.676 1.312-16.661-36.293-53.345-61.562-95.824-61.562-58.104 0-105.375 47.271-105.375 105.375 0 31.638 14.018 60.062 36.167 79.393-2.683 8.949-4.507 18.13-5.396 27.48-34.651 6.721-60.896 37.292-60.896 73.877 0 45.595 27.572 87.938 77.638 119.228 47.871 29.919 111.215 46.397 178.362 46.397s130.491-16.478 178.362-46.397c50.066-31.29 77.638-73.633 77.638-119.228 0-36.585-26.245-67.156-60.896-73.876zm-74.604-182.249c41.562 0 75.375 33.813 75.375 75.375s-33.813 75.375-75.375 75.375-75.375-33.813-75.375-75.375 33.813-75.375 75.375-75.375zm-316.375 75.375c0-41.562 33.813-75.375 75.375-75.375s75.375 33.813 75.375 75.375-33.813 75.375-75.375 75.375-75.375-33.813-75.375-75.375zm358.338 274.538c-43.167 26.979-100.863 41.837-162.463 41.837s-119.296-14.858-162.463-41.837c-40.973-25.608-63.537-58.916-63.537-93.788 0-24.951 20.299-45.25 45.25-45.25h15c-.089-12.352-.331-26.443 2.649-39.13 13.034 5.784 27.447 9.005 42.601 9.005 58.104 0 105.375-47.271 105.375-105.375 0-4.911-.346-9.743-.999-14.477 5.306-.424 10.683-.648 16.124-.648 5.44 0 10.817.225 16.124.647-.654 4.735-.999 9.567-.999 14.478 0 58.104 47.271 105.375 105.375 105.375 15.16 0 29.58-3.224 42.618-9.013 2.739 10.573 2.804 27.36 2.632 39.138h15c24.951 0 45.25 20.299 45.25 45.25 0 34.872-22.564 68.18-63.537 93.788z"/><path d="m377.102 366.738c-32.097 16.048-75.105 24.887-121.102 24.887s-89.005-8.838-121.102-24.887c-28.375-14.188-44.648-32.59-44.648-50.488h-30c0 30.118 21.746 57.578 61.232 77.321 36.182 18.091 83.954 28.054 134.518 28.054s98.336-9.963 134.518-28.054c39.486-19.743 61.232-47.203 61.232-77.321h-30c0 17.898-16.273 36.301-44.648 50.488z"/><path d="m120.5 120.5h30v30h-30z"/><path d="m361.5 120.5h30v30h-30z"/></g></svg>