<svg id="Capa_1" enable-background="new 0 0 512 512" height="512" viewBox="0 0 512 512" width="512" xmlns="http://www.w3.org/2000/svg"><g><path d="m481.875 75.25c0-41.493-33.757-75.25-75.25-75.25-31.708 0-58.879 19.723-69.94 47.538-24.615-11.181-51.935-17.413-80.685-17.413s-56.07 6.232-80.685 17.413c-11.061-27.815-38.232-47.538-69.94-47.538-41.493 0-75.25 33.757-75.25 75.25 0 31.709 19.723 58.879 47.538 69.94-11.181 24.615-17.413 51.936-17.413 80.685v112.438c0 43.139 32.958 78.72 75.016 82.897 10.876 14.674 26.952 25.271 45.484 29.035v16.63c0 24.882 20.243 45.125 45.125 45.125h60.25c24.882 0 45.125-20.243 45.125-45.125v-16.63c18.532-3.764 34.608-14.361 45.484-29.035 42.058-4.177 75.016-39.758 75.016-82.897v-112.438c0-28.75-6.232-56.07-17.413-80.685 27.815-11.061 47.538-38.231 47.538-69.94zm-421.75 0c0-24.951 20.299-45.25 45.25-45.25 20.427 0 37.728 13.608 43.333 32.233-22.404 14.739-41.612 33.947-56.35 56.35-18.625-5.605-32.233-22.906-32.233-43.333zm90.375 301.25v-52.719c0-8.34 6.785-15.125 15.125-15.125h36.179c6.467 11.93 26.58 26.4 39.196 32.218v35.626c0 24.951-20.299 45.25-45.25 45.25s-45.25-20.299-45.25-45.25zm75.312-88.345c0-6.416 0-17.155 30.188-17.155s30.188 10.739 30.188 17.155c2.252 5.986-22.338 24.215-30.188 26.678-7.847-2.462-32.441-20.693-30.188-26.678zm75.438 178.72c0 8.34-6.785 15.125-15.125 15.125h-60.25c-8.34 0-15.125-6.785-15.125-15.125v-16.634c18.396-3.736 34.378-14.197 45.25-28.705 10.872 14.508 26.854 24.969 45.25 28.705zm60.25-90.375c0 24.951-20.299 45.25-45.25 45.25s-45.25-20.299-45.25-45.25v-35.625c14.086-6.607 33.005-20.84 39.196-32.218h36.179c8.34 0 15.125 6.785 15.125 15.125zm60.25-38.187c0 21.416-12.7 39.912-30.959 48.382.454-3.337.709-6.736.709-10.195v-52.719c0-24.882-20.243-45.125-45.125-45.125h-15.125v-64.906h-30v40.078c-1.86-1.552-3.746-2.869-5.565-3.963-18.113-11.833-61.83-11.719-79.369 0-1.819 1.094-3.706 2.411-5.565 3.963v-40.078h-30v64.906h-15.125c-24.882 0-45.125 20.243-45.125 45.125v52.719c0 3.459.255 6.858.709 10.195-18.259-8.47-30.959-26.966-30.959-48.382v-112.438c0-91.395 74.355-165.75 165.75-165.75s165.75 74.355 165.75 165.75v112.438zm-2.108-219.73c-14.739-22.403-33.947-41.612-56.35-56.35 5.605-18.625 22.906-32.233 43.333-32.233 24.951 0 45.25 20.299 45.25 45.25 0 20.427-13.608 37.728-32.233 43.333z"/><path d="m285.125 90.375h30v30h-30z"/><path d="m196.875 90.375h30v30h-30z"/><path d="m241 136.625h30v30h-30z"/><path d="m150.747 183.751h30v30h-30z"/><path d="m331.245 183.747h30v30h-30z"/></g></svg>