<svg id="Capa_1" enable-background="new 0 0 512.819 512.819" height="512" viewBox="0 0 512.819 512.819" width="512" xmlns="http://www.w3.org/2000/svg"><g><path d="m151.035 151.034h30v30h-30z"/><path d="m331.785 151.034h30v30h-30z"/><path d="m512.819 166.322c0-26.057-6.045-50.726-16.797-72.689 9.644-40.801 1.479-61.636-.946-76.046-15.36-2.735-35.716-10.449-76.461-.821-21.711-10.449-46.018-16.33-71.681-16.33-32.54 0-63.614 9.252-90.524 26.854-26.91-17.602-57.985-26.854-90.524-26.854-25.668 0-49.986 5.87-71.699 16.324-40.91-9.852-62.021-1.593-76.444.826-2.745 15.36-10.355 35.428-.946 76.046-10.752 21.963-16.797 46.633-16.797 72.69 0 38.767 13.402 75.892 37.927 105.566-5.15 14.488-7.755 29.687-7.755 45.31.168 63.629 42.535 114.782 101.719 131.919 4.896-7.518 8.272-13.535 17.762-18.935 34.215 51.542 98.177 77.837 106.758 82.2 10.601-5.281 72.124-30.694 106.758-82.2 7.801 3.94 13.496 11.939 17.762 18.934 60.838-17.583 101.308-69.567 101.719-131.919 0-15.623-2.605-30.822-7.755-45.31 24.522-29.673 37.924-66.798 37.924-105.565zm-43.322-123.158c2.106 17.262 2.154 45.528-11.822 59.503-7.951 7.95-20.349 11.14-31.468 12.27-6.864-10.253-16.947-20.753-28.486-28.443 1.126-11.114 4.311-23.543 12.274-31.506 13.98-13.979 42.255-13.928 59.502-11.824zm-198.551 263.677c-5.277 3.62-10.663 6.502-14.536 8.401-3.876-1.901-9.261-4.782-14.537-8.401-11.54-7.917-15.651-14.632-15.651-18.276 0-6.416 0-17.155 30.188-17.155s30.188 10.739 30.188 17.155c-.001 3.644-4.113 10.359-15.652 18.276zm.464 34.443c21.009-9.23 47.155-33.114 45.188-52.72 0-21.453-11.149-32.663-20.503-38.29-9.917-5.965-22.897-8.865-39.685-8.865s-29.768 2.9-39.685 8.865c-9.354 5.626-20.503 16.837-20.503 38.29-1.134 22.002 24.285 42.698 45.188 52.72v48.341c-22.418-5.371-40.984-22.487-47.566-45.262l-17.533-60.673c-5.917-20.475-19.774-37.504-39.018-47.952-23.666-12.847-38.234-37.543-38.021-64.45.308-38.766 32.072-71.064 70.808-71.997.6-.015 1.196-.021 1.793-.021 14.082 0 27.688 4.007 39.452 11.638 27.387 17.764 62.78 17.764 90.167 0 12.265-7.955 26.535-11.979 41.247-11.617 38.736.933 70.5 33.231 70.807 71.998.213 26.906-14.355 51.602-38.021 64.449-19.244 10.448-33.101 27.478-39.018 47.953l-17.533 60.673c-6.582 22.775-25.148 39.891-47.566 45.262v-48.342zm-24.014-283.686 9.013 6.775 9.013-6.775c23.639-17.769 51.825-27.162 81.511-27.162 13.724 0 26.974 2.058 39.472 5.861-8.511 9.533-14.209 21.92-17.07 36.975-8.335-2.406-17.014-3.759-25.872-3.972-20.774-.51-40.941 5.183-58.294 16.438-17.47 11.332-40.046 11.332-57.518 0-17.352-11.255-37.516-16.939-58.292-16.438-8.859.213-17.538 1.566-25.874 3.972-2.861-15.058-8.563-27.449-17.077-36.982 12.499-3.803 25.753-5.854 39.479-5.854 29.685 0 57.871 9.393 81.509 27.162zm-204.075-14.432c17.263-2.106 45.528-2.153 59.503 11.823 7.964 7.964 11.149 20.393 12.274 31.507-10.107 6.737-20.906 17.018-28.486 28.443-11.119-1.13-23.517-4.319-31.468-12.269-13.979-13.982-13.928-42.257-11.823-59.504zm347.601 370.181c-18.191-14.745-27.324-16.231-42.128-22.707-15.09 48.027-69.098 76.252-92.384 88.617-29.708-14.822-79.68-45.794-92.385-88.617-15.566 6.735-23.622 7.923-42.128 22.707-37.286-17.062-61.726-54.566-61.726-96.149-.378-16.979 5.168-35.709 12.755-51.291-26.644-25.908-43.189-61.935-42.926-99.585 0-14.053 2.148-27.612 6.129-40.371 9.557 8.659 22.017 14.459 37.202 17.359-2.596 8.925-3.983 18.24-4.058 27.739-.301 38.017 20.278 72.906 53.706 91.054 12.135 6.588 20.84 17.212 24.511 29.916l17.533 60.673c5.771 19.97 17.603 37.128 34.217 49.621s36.383 19.096 57.17 19.096 40.556-6.604 57.17-19.096c16.614-12.493 28.446-29.651 34.217-49.622l17.532-60.672c3.671-12.704 12.376-23.328 24.511-29.916 33.429-18.147 54.007-53.037 53.706-91.052-.075-9.5-1.462-18.815-4.058-27.741 15.182-2.899 27.639-8.698 37.196-17.354 3.98 12.758 6.135 26.314 6.135 40.366.404 37.425-16.221 73.438-42.926 99.585 7.467 15.362 12.968 33.291 12.755 51.291 0 41.583-24.44 79.087-61.726 96.149z"/></g></svg>