<svg id="Capa_1" enable-background="new 0 0 512 512" height="512" viewBox="0 0 512 512" width="512" xmlns="http://www.w3.org/2000/svg"><g><path d="m195.875 120.5h30v30h-30z"/><path d="m286.125 120.5h30v30h-30z"/><path d="m421.75 241v45.125c0 8.34-6.785 15.125-15.125 15.125s-15.125-6.785-15.125-15.125v-150.625c0-74.715-60.785-135.5-135.5-135.5s-135.5 60.785-135.5 135.5v150.625c0 8.34-6.785 15.125-15.125 15.125s-15.125-6.785-15.125-15.125v-45.125h-90.25v45.125c0 41.965 24.661 78.275 60.25 95.211v25.289c0 58.104 47.271 105.375 105.375 105.375 38.325 0 71.932-20.569 90.375-51.244 18.443 30.675 52.05 51.244 90.375 51.244 58.104 0 105.375-47.271 105.375-105.375v-25.289c35.589-16.936 60.25-53.246 60.25-95.211v-45.125zm60.25 45.125c0 41.562-33.813 75.375-75.375 75.375s-75.375-33.813-75.375-75.375h-30v120.5c0 24.882 20.243 45.125 45.125 45.125s45.125-20.243 45.125-45.125v-16.215c4.941.713 9.99 1.09 15.125 1.09s10.184-.376 15.125-1.09v16.215c0 41.562-33.813 75.375-75.375 75.375s-75.375-33.813-75.375-75.375v-90.375h-30v90.375c0 41.562-33.813 75.375-75.375 75.375s-75.375-33.813-75.375-75.375v-16.215c4.941.713 9.99 1.09 15.125 1.09s10.184-.376 15.125-1.09v16.215c0 24.882 20.243 45.125 45.125 45.125s45.125-20.243 45.125-45.125v-120.5h-30c0 41.562-33.813 75.375-75.375 75.375s-75.375-33.813-75.375-75.375v-15.125h30.25v15.125c0 24.882 20.243 45.125 45.125 45.125s45.125-20.243 45.125-45.125v-150.625c0-58.173 47.327-105.5 105.5-105.5s105.5 47.327 105.5 105.5v150.625c0 24.882 20.243 45.125 45.125 45.125s45.125-20.243 45.125-45.125v-15.125h30.25zm-150.75 73.556c8.678 8.89 18.907 16.257 30.25 21.654v25.289c0 8.34-6.785 15.125-15.125 15.125s-15.125-6.785-15.125-15.125zm-180.75 21.655c11.343-5.398 21.572-12.764 30.25-21.654v46.944c0 8.34-6.785 15.125-15.125 15.125s-15.125-6.785-15.125-15.125z"/><path d="m256 180.75c-24.882 0-45.125 20.243-45.125 45.125s20.243 45.125 45.125 45.125 45.125-20.243 45.125-45.125-20.243-45.125-45.125-45.125zm0 60.25c-8.34 0-15.125-6.785-15.125-15.125s6.785-15.125 15.125-15.125 15.125 6.785 15.125 15.125-6.785 15.125-15.125 15.125z"/></g></svg>