<svg id="Capa_1" enable-background="new 0 0 512 512" height="512" viewBox="0 0 512 512" width="512" xmlns="http://www.w3.org/2000/svg"><g><path d="m271.062 421.625c24.882 0 45.125-20.243 45.125-45.125h-30c0 8.34-6.785 15.125-15.125 15.125s-15.125-6.785-15.125-15.125h-30c0 24.882 20.244 45.125 45.125 45.125z"/><path d="m331.312 361.375c24.882 0 45.125-20.243 45.125-45.125h-30c0 8.34-6.785 15.125-15.125 15.125s-15.125-6.785-15.125-15.125h-30c.001 24.882 20.244 45.125 45.125 45.125z"/><path d="m323.462 482c16.996-9.811 32.819-21.909 47.068-36.157 42.662-42.662 66.157-99.385 66.157-159.718v-46.816c18.623-19.015 30.125-45.03 30.125-73.684 0-30.315-12.873-57.677-33.434-76.92 19.232-5.164 33.434-22.741 33.434-43.58v-45.125h-135.5c-24.619 0-46.513 11.884-60.25 30.216-13.737-18.332-35.631-30.216-60.25-30.216h-135.5v45.125c0 20.839 14.203 38.416 33.434 43.58-20.561 19.242-33.434 46.604-33.434 76.92 0 24.996 8.754 47.982 23.35 66.067-30.907 9.362-53.475 38.103-53.475 72.025v148.033h45.125c3.774 0 7.502-.204 11.175-.593-7.651 18.105-25.59 30.843-46.449 30.843h-55.038v30h512v-30zm113.35-316.375c0 41.562-33.812 75.375-75.374 75.375s-75.375-33.813-75.375-75.375 33.813-75.375 75.375-75.375 75.374 33.813 75.374 75.375zm-136.343 85.902-29.395 17.21-29.368-17.246c11.83-8.432 21.849-19.246 29.357-31.734 7.518 12.505 17.554 23.333 29.406 31.77zm30.843-221.527h105.5v15.125c0 8.34-6.785 15.125-15.125 15.125h-60.25c-29.514 0-56.227 12.202-75.375 31.819v-16.819c0-24.951 20.299-45.25 45.25-45.25zm-210.875 30.25c-8.34 0-15.125-6.785-15.125-15.125v-15.125h105.5c24.951 0 45.25 20.299 45.25 45.25v16.819c-19.148-19.617-45.861-31.819-75.375-31.819zm60.25 30c41.562 0 75.375 33.813 75.375 75.375s-33.812 75.375-75.375 75.375-75.375-33.813-75.375-75.375 33.813-75.375 75.375-75.375zm-105.5 331.5v-118.032c0-24.951 20.299-45.25 45.25-45.25s45.25 20.299 45.25 45.25v42.657c0 41.562-33.813 75.375-75.375 75.375zm42.45 60.25c9.094-11.273 15.206-25.045 17.14-40.105 32.452-15.167 55.949-46.392 60.209-83.392 4.928 1.852 10.26 2.872 15.827 2.872 24.882 0 45.125-20.243 45.125-45.125h-30c0 8.34-6.785 15.125-15.125 15.125s-15.125-6.785-15.125-15.125v-12.532c0-11.824-2.749-23.014-7.629-32.98 7.226-.502 14.253-1.733 21.009-3.625l61.983 36.4 62.12-36.369c8.999 2.509 18.479 3.856 28.267 3.856 16.188 0 31.532-3.673 45.25-10.223v25.348c0 108.006-87.87 195.875-195.876 195.875z"/><path d="m165.687 150.625h30v30h-30z"/><path d="m346.438 150.625h30v30h-30z"/></g></svg>