<svg id="Capa_1" enable-background="new 0 0 512 512" height="512" viewBox="0 0 512 512" width="512" xmlns="http://www.w3.org/2000/svg"><g><path d="m437.02 74.98c-48.353-48.351-112.64-74.98-181.02-74.98s-132.667 26.629-181.02 74.98c-48.351 48.353-74.98 112.64-74.98 181.02v256h512v-256c0-68.38-26.629-132.667-74.98-181.02zm-90.645 407.02h-180.75c-41.562 0-75.375-33.813-75.375-75.375v-120.5c0-41.562 33.813-75.375 75.375-75.375s75.375 33.813 75.375 75.375v46.755c-39.699 8.319-63.051 43.806-60.25 83.015l75.25 37.626 75.25-37.625c2.97-41.306-22.252-74.826-60.25-83.015v-46.755c0-41.562 33.813-75.375 75.375-75.375s75.375 33.813 75.375 75.375v120.5c0 41.561-33.813 75.374-75.375 75.374zm-90.375-120.625c21.928 0 40.263 15.677 44.384 36.413l-44.384 22.191-44.384-22.192c4.121-20.735 22.456-36.412 44.384-36.412zm226 120.625h-62.069c19.617-19.148 31.819-45.861 31.819-75.375v-120.5c0-58.104-47.271-105.375-105.375-105.375-38.325 0-71.932 20.569-90.375 51.244-18.443-30.675-52.05-51.244-90.375-51.244-58.104 0-105.375 47.271-105.375 105.375v120.5c0 29.514 12.202 56.227 31.819 75.375h-62.069v-226c0-60.367 23.508-117.12 66.194-159.806s99.439-66.194 159.806-66.194 117.12 23.508 159.806 66.194 66.194 99.439 66.194 159.806z"/><path d="m150.693 271.125h30v30h-30z"/><path d="m331.375 271.125h30v30h-30z"/></g></svg>