<svg id="Capa_1" enable-background="new 0 0 512 512" height="512" viewBox="0 0 512 512" width="512" xmlns="http://www.w3.org/2000/svg"><path d="m353.875 210.875c-.081-9.371.55-20.296-1.528-30.25h16.653c24.882 0 45.125-20.243 45.125-45.125v-17.698c17.529-6.198 30.125-22.927 30.125-42.552 0-41.493-33.757-75.25-75.25-75.25h-30.125v30c8.34 0 15.125 6.785 15.125 15.125v30.125c0 19.624 12.596 36.354 30.125 42.552v17.698c0 8.34-6.785 15.125-15.125 15.125h-30.196c-13.741-18.279-35.601-30.125-60.179-30.125s-46.437 11.846-60.179 30.125h-30.196c-8.34 0-15.125-6.785-15.125-15.125v-17.698c17.529-6.198 30.125-22.927 30.125-42.552v-30.125c0-8.34 6.785-15.125 15.125-15.125v-30h-30.125c-41.493 0-75.25 33.757-75.25 75.25 0 19.624 12.596 36.354 30.125 42.552v17.698c0 24.882 20.243 45.125 45.125 45.125h16.653c-1.829 6.971-1.563 22.534-1.528 30.25h-51.463l-34.518 34.519 21.213 21.213 25.732-25.731h39.037c.081 9.371-.55 20.296 1.528 30.25h-22.866l-34.518 34.519 21.213 21.213 25.732-25.731h23.983c6.121 8.143 13.863 14.992 22.729 20.102-4.844 7.191-7.676 15.844-7.676 25.148 0 11.568 4.38 22.13 11.563 30.125-7.183 7.995-11.563 18.557-11.563 30.125 0 19.029 11.846 35.333 28.546 41.956-5.217 19.228-22.814 33.417-43.672 33.417h-30.125c-20.858 0-38.455-14.189-43.671-33.419 16.7-6.623 28.546-22.927 28.546-41.956 0-41.493-33.757-75.25-75.25-75.25h-30.125v30c8.34 0 15.125 6.785 15.125 15.125v30.125c0 20.037 13.131 37.057 31.237 42.929 6.099 35.412 37.011 62.446 74.138 62.446h30.125c37.127 0 68.039-27.034 74.138-62.446 18.106-5.872 31.237-22.892 31.237-42.929 0-11.568-4.38-22.13-11.563-30.125 7.183-7.995 11.563-18.557 11.563-30.125 0-9.303-2.831-17.957-7.676-25.148 8.866-5.11 16.608-11.96 22.729-20.102h23.983l25.732 25.731 21.213-21.213-34.518-34.519h-22.866c1.829-6.971 1.563-22.534 1.528-30.25h39.037l25.732 25.731 21.213-21.213-34.518-34.519h-51.464zm28.151-178.964c18.622 5.607 32.224 22.915 32.224 43.339 0 8.34-6.785 15.125-15.125 15.125s-15.125-6.785-15.125-15.125v-30.125c0-4.596-.691-9.034-1.974-13.214zm-206.802 0c-1.283 4.181-1.974 8.619-1.974 13.214v30.125c0 8.34-6.785 15.125-15.125 15.125s-15.125-6.785-15.125-15.125c0-20.425 13.602-37.732 32.224-43.339zm-64.323 331.375c18.622 5.607 32.224 22.915 32.224 43.339 0 8.34-6.785 15.125-15.125 15.125s-15.125-6.785-15.125-15.125v-30.125c0-4.596-.691-9.034-1.974-13.214zm167.724-212.786c19.685 0 36.465 12.639 42.675 30.224-6.321 17.935-23.341 30.151-42.675 30.151s-36.354-12.216-42.675-30.151c6.21-17.585 22.99-30.224 42.675-30.224zm0 271.25c-8.34 0-15.125-6.785-15.125-15.125s6.785-15.125 15.125-15.125 15.125 6.785 15.125 15.125-6.785 15.125-15.125 15.125zm15.125-75.375c0 8.34-6.785 15.125-15.125 15.125s-15.125-6.785-15.125-15.125 6.785-15.125 15.125-15.125 15.125 6.785 15.125 15.125zm-15.125-45.125c-24.951 0-45.25-20.299-45.25-45.25v-30.244c12.71 9.558 28.452 15.119 45.25 15.119s32.54-5.561 45.25-15.119v30.244c0 24.951-20.299 45.25-45.25 45.25z"/></svg>