<svg id="Capa_1" enable-background="new 0 0 512 512" height="512" viewBox="0 0 512 512" width="512" xmlns="http://www.w3.org/2000/svg"><path d="m466.875 421.75h-17.698c-6.198-17.529-22.927-30.125-42.552-30.125-24.882 0-45.125 20.243-45.125 45.125v42.965c-18.216-5.28-34.023-23.74-35.306-44.003l-6.194-74.337h56.5c24.882 0 45.125-20.243 45.125-45.125v-15.125h60.25v-45.125c0-20.34-13.524-37.579-32.055-43.195-5.616-18.53-22.855-32.055-43.195-32.055s-37.579 13.524-43.195 32.055c-18.53 5.617-32.055 22.855-32.055 43.195v45.125h60.25v15.125c0 8.34-6.785 15.125-15.125 15.125h-59l-12.808-153.7c12.346-4.71 22.112-14.688 26.526-27.175h45.221v-45.125c.108-24.865-21.221-46.078-46.689-45.125-6.975-34.33-37.393-60.25-73.75-60.25s-66.775 25.92-73.749 60.25c-25.03-.942-46.733 19.739-46.689 45.125v45.125h74.01l-12.562 150.75h-61.51c-8.34 0-15.125-6.785-15.125-15.125v-15.125h60.25v-45.125c0-20.34-13.524-37.579-32.055-43.195-5.617-18.53-22.855-32.055-43.195-32.055s-37.579 13.524-43.195 32.055c-18.53 5.617-32.055 22.855-32.055 43.195v45.125h60.25v15.125c0 24.882 20.243 45.125 45.125 45.125h59.01l-8.705 104.462c-1.477 19.382-15.511 38.057-35.305 44.003v-42.965c0-24.882-20.243-45.125-45.125-45.125-19.624 0-36.354 12.596-42.552 30.125h-17.698c-24.882 0-45.125 20.243-45.125 45.125v45.125h512v-45.125c0-24.882-20.243-45.125-45.125-45.125zm-105.5-165.75c0-8.34 6.785-15.125 15.125-15.125h15v-15c0-8.34 6.785-15.125 15.125-15.125s15.125 6.785 15.125 15.125v15h15c8.34 0 15.125 6.785 15.125 15.125v15.125h-90.5zm-301.25-30.125c0-8.34 6.785-15.125 15.125-15.125h15v-15c0-8.34 6.785-15.125 15.125-15.125s15.125 6.785 15.125 15.125v15h15c8.34 0 15.125 6.785 15.125 15.125v15.125h-90.5zm105.437-120.5c0-8.34 6.785-15.125 15.125-15.125h30.063v-15c0-24.951 20.299-45.25 45.25-45.25s45.25 20.299 45.25 45.25v15h30.062c8.34 0 15.125 6.785 15.125 15.125v15.125h-42.658v15c0 8.34-6.785 15.125-15.125 15.125s-15.125-6.785-15.125-15.125v-15h-107.967zm-135.562 376.625v-15.125c0-8.34 6.785-15.125 15.125-15.125h15.125v30.25zm60.25 0v-45.25c0-8.34 6.785-15.125 15.125-15.125s15.125 6.785 15.125 15.125v45.25zm107.938 0c10.042-12.449 16.167-27.637 17.514-43.796l23.975-287.704h6.415c4.653 13.165 15.253 23.545 28.555 27.899l21.65 259.804c1.347 16.16 7.473 31.347 17.514 43.796h-115.623zm193.312 0v-45.25c0-8.34 6.785-15.125 15.125-15.125s15.125 6.785 15.125 15.125v45.25zm60.25 0v-30.25h15.125c8.34 0 15.125 6.785 15.125 15.125v15.125z"/></svg>