<svg id="Capa_1" enable-background="new 0 0 512 512" height="512" viewBox="0 0 512 512" width="512" xmlns="http://www.w3.org/2000/svg"><g><path d="m425.957 274.082c7.12 5.562 16.871 13.179 34.837 13.179s27.718-7.617 34.838-13.179c5.63-4.398 8.731-6.821 16.368-6.821v-30c-17.966 0-27.717 7.617-34.837 13.179-9.445 9.326-24.232 8.514-32.737 0-10.805-10.195-29.932-16.035-48.099-11.51-13.88-41.305-37.221-79.153-68.933-110.865-62.702-62.299-139.538-87.003-223.847-83.804 18.51 42.55 33.878 118.931 32.989 122.068l36.179 8.365-27.253 21.891c1.3 19.224.901 42.061-1.192 58.595-2.597-1.121-5-2.7-7.037-4.739-15.314-14.45-47.347-20.172-69.669 0-9.445 9.325-24.225 8.514-32.729 0-7.12-5.562-16.87-13.18-34.835-13.18v30c7.635 0 10.735 2.422 16.365 6.82 15.314 14.451 47.346 20.171 69.667 0 9.446-9.325 24.224-8.513 32.73 0 5.172 4.881 12.257 8.756 20.225 10.982-1.935 8.054-4.127 15.339-6.416 21.856-16.499-11.514-44.752-14.534-65.009 3.771-9.445 9.325-24.225 8.514-32.729 0-7.12-5.562-16.87-13.18-34.835-13.18v30c7.635 0 10.735 2.422 16.365 6.82 15.314 14.451 47.346 20.171 69.667 0 9.446-9.325 24.224-8.513 32.73 0 15.314 14.451 47.346 20.171 69.667 0 9.444-9.324 24.224-8.514 32.729 0 15.312 14.451 47.345 20.172 69.667 0 9.446-9.325 24.224-8.513 32.73 0 15.313 14.45 47.346 20.172 69.668 0 9.446-9.326 24.228-8.512 32.733 0 7.12 5.562 16.871 13.179 34.837 13.179s27.718-7.617 34.838-13.179c5.63-4.398 8.731-6.821 16.368-6.821v-30c-17.966 0-27.717 7.617-34.837 13.179-9.445 9.326-24.232 8.514-32.737 0-8.232-7.767-21.297-13.004-35.086-13.061-1.134-10.012-2.801-19.903-4.958-29.651 7.71-1.737 15.995.518 21.578 6.106zm-51.203 36.609c-9.443 9.326-24.225 8.512-32.729 0-15.314-14.451-47.346-20.171-69.669 0-9.442 9.326-24.224 8.513-32.727 0-15.314-14.451-47.347-20.171-69.668 0-2.621 2.588-5.654 4.392-8.849 5.471 8.815-25.374 16.279-60.596 14.993-105.711l63.573-51.064-76.765-17.749c-2.498-13.413-7.772-38.593-16.581-66.512 60.396 4.931 116.518 30.824 159.847 74.153 42.699 42.699 68.455 97.819 73.914 157.212-1.827 1.257-3.615 2.642-5.339 4.2z"/><path d="m444.426 431.191c-15.314-14.449-47.349-20.171-69.672 0-9.443 9.326-24.225 8.512-32.729 0-15.314-14.451-47.346-20.171-69.669 0-9.442 9.326-24.224 8.513-32.727 0-15.314-14.451-47.347-20.171-69.668 0-9.445 9.325-24.225 8.514-32.729 0-15.314-14.45-47.347-20.172-69.669 0-9.445 9.325-24.225 8.514-32.729 0-7.12-5.562-16.87-13.18-34.835-13.18v30c7.635 0 10.735 2.422 16.365 6.82 15.314 14.451 47.346 20.171 69.667 0 9.446-9.325 24.224-8.513 32.73 0 15.314 14.451 47.346 20.171 69.667 0 9.444-9.324 24.224-8.514 32.729 0 15.312 14.451 47.345 20.172 69.667 0 9.446-9.325 24.224-8.513 32.73 0 15.313 14.45 47.346 20.172 69.668 0 9.446-9.326 24.228-8.512 32.733 0 7.12 5.562 16.871 13.179 34.837 13.179s27.718-7.617 34.838-13.179c5.63-4.398 8.731-6.821 16.368-6.821v-30c-17.966 0-27.717 7.617-34.837 13.179-9.443 9.328-24.229 8.515-32.735.002z"/><path d="m444.426 370.941c-15.314-14.449-47.349-20.171-69.672 0-9.443 9.326-24.225 8.512-32.729 0-15.314-14.451-47.346-20.171-69.669 0-9.442 9.326-24.224 8.513-32.727 0-15.314-14.451-47.347-20.171-69.668 0-9.445 9.325-24.225 8.514-32.729 0-15.314-14.45-47.347-20.172-69.669 0-9.445 9.325-24.225 8.514-32.729 0-7.12-5.562-16.87-13.18-34.835-13.18v30c7.635 0 10.735 2.422 16.365 6.82 15.314 14.451 47.346 20.171 69.667 0 9.446-9.325 24.224-8.513 32.73 0 15.314 14.451 47.346 20.171 69.667 0 9.444-9.324 24.224-8.514 32.729 0 15.312 14.451 47.345 20.172 69.667 0 9.446-9.325 24.224-8.513 32.73 0 15.313 14.45 47.346 20.172 69.668 0 9.446-9.326 24.228-8.512 32.733 0 7.12 5.562 16.871 13.179 34.837 13.179s27.718-7.617 34.838-13.179c5.63-4.398 8.731-6.821 16.368-6.821v-30c-17.966 0-27.717 7.617-34.837 13.179-9.443 9.328-24.229 8.515-32.735.002z"/></g></svg>