<svg id="Capa_1" enable-background="new 0 0 512 512" height="512" viewBox="0 0 512 512" width="512" xmlns="http://www.w3.org/2000/svg"><g><path d="m512 346.375c0-36.357-25.92-66.775-60.25-73.749v-46.751c0-28.75-6.232-56.07-17.413-80.685 27.815-11.061 47.538-38.231 47.538-69.94 0-41.493-33.757-75.25-75.25-75.25-31.708 0-58.879 19.723-69.94 47.538-24.615-11.181-51.935-17.413-80.685-17.413s-56.07 6.232-80.685 17.413c-11.061-27.815-38.232-47.538-69.94-47.538-41.493 0-75.25 33.757-75.25 75.25 0 31.708 19.723 58.879 47.538 69.94-11.181 24.615-17.413 51.936-17.413 80.685v46.751c-34.33 6.974-60.25 37.392-60.25 73.749v15h45.286c-9.514 12.602-15.161 28.279-15.161 45.25v15h105.446c10.87 14.46 26.821 24.891 45.179 28.62v16.63c0 24.882 20.243 45.125 45.125 45.125h60.25c24.882 0 45.125-20.243 45.125-45.125v-16.63c18.358-3.728 34.309-14.16 45.179-28.62h105.446v-15c0-16.971-5.647-32.648-15.161-45.25h45.286zm-105.375-316.375c24.951 0 45.25 20.299 45.25 45.25 0 20.427-13.608 37.728-32.233 43.333-14.739-22.404-33.947-41.612-56.35-56.35 5.605-18.625 22.906-32.233 43.333-32.233zm-346.5 45.25c0-24.951 20.299-45.25 45.25-45.25 20.427 0 37.728 13.608 43.333 32.233-22.404 14.739-41.612 33.947-56.35 56.35-18.625-5.605-32.233-22.906-32.233-43.333zm90.375 301.25v-52.719c0-8.34 6.785-15.125 15.125-15.125h36.179c6.467 11.93 26.58 26.4 39.196 32.219v35.625c0 24.951-20.299 45.25-45.25 45.25s-45.25-20.299-45.25-45.25zm75.312-88.345c0-6.416 0-17.155 30.188-17.155s30.188 10.739 30.188 17.155c2.252 5.986-22.338 24.215-30.188 26.678-7.847-2.462-32.441-20.693-30.188-26.678zm75.438 178.72c0 8.34-6.785 15.125-15.125 15.125h-60.25c-8.34 0-15.125-6.785-15.125-15.125v-16.634c18.396-3.736 34.378-14.197 45.25-28.705 10.872 14.508 26.854 24.969 45.25 28.705zm60.25-90.375c0 24.951-20.299 45.25-45.25 45.25s-45.25-20.299-45.25-45.25v-35.625c14.086-6.607 33.005-20.84 39.196-32.219h36.179c8.34 0 15.125 6.785 15.125 15.125zm45.125-45.125v30c19.695 0 36.493 12.649 42.694 30.25h-59.347c1.001-4.887 1.528-9.946 1.528-15.125v-52.719c0-24.882-20.243-45.125-45.125-45.125h-15.125v-64.906h-30v40.078c-1.86-1.552-3.746-2.869-5.565-3.963-17.539-11.719-61.256-11.833-79.369 0-1.819 1.094-3.706 2.411-5.565 3.963v-40.078h-30v64.906h-15.125c-24.882 0-45.125 20.243-45.125 45.125v52.719c0 5.179.526 10.238 1.528 15.125h-59.348c6.201-17.601 22.999-30.25 42.694-30.25v-30h-72.819c6.201-17.601 22.999-30.25 42.694-30.25h30.125v-30h-15.125v-45.25c0-86.338 66.359-157.457 150.75-165.064v30.39c-30.52 3.34-58.791 16.838-80.812 38.861l21.213 21.213c16.345-16.345 37.11-26.661 59.6-29.843v30.684c-14.381 2.894-27.601 9.941-38.21 20.55l21.213 21.213c4.877-4.877 10.674-8.498 16.997-10.713v21.76h30v-21.76c6.323 2.215 12.12 5.836 16.997 10.713l21.213-21.213c-10.609-10.609-23.829-17.656-38.21-20.55v-30.684c22.49 3.182 43.255 13.497 59.6 29.843l21.213-21.213c-22.023-22.023-50.294-35.521-80.814-38.861v-30.39c84.391 7.607 150.75 78.726 150.75 165.064v45.25h-15.125v30h30.125c19.695 0 36.493 12.649 42.694 30.25z"/><path d="m150.747 183.751h30v30h-30z"/><path d="m331.245 183.747h30v30h-30z"/></g></svg>