<svg id="Capa_1" enable-background="new 0 0 512.049 512.049" height="512" viewBox="0 0 512.049 512.049" width="512" xmlns="http://www.w3.org/2000/svg"><path d="m400.586 336.746c13.405-23.904 21.063-51.445 21.063-80.746s-7.658-56.842-21.063-80.746l68.366-68.366-31.909-31.908c-17.593-17.594-46.222-17.594-63.816 0l-36.457 36.458c-5.993-3.361-12.214-6.359-18.635-8.966v-40.36c.001-34.249-27.862-62.112-62.111-62.112s-62.111 27.863-62.111 62.111v40.36c-6.421 2.607-12.642 5.606-18.634 8.966l-36.458-36.457c-17.594-17.593-46.222-17.592-63.816 0l-31.909 31.908 68.366 68.365c-13.404 23.905-21.063 51.446-21.063 80.747s7.658 56.842 21.063 80.746l-36.457 36.457c-8.523 8.523-13.217 19.855-13.217 31.908s4.694 23.385 13.217 31.908l31.908 31.909 68.365-68.366c6.888 3.862 14.077 7.247 21.525 10.108 10.7 40.888 47.514 87.28 47.948 87.775l11.94 13.604 11.149-14.259c4.363-5.579 37.449-48.76 47.442-87.133 7.435-2.858 14.611-6.238 21.488-10.094l68.365 68.366 31.908-31.909c17.594-17.594 17.594-46.221 0-63.816zm-64.204 28.438-27.919-48.357 26.457-45.827h55.895c-4.26 38.543-24.733 72.267-54.433 94.184zm-80.358 26.441c-19.337 0-37.738-4.077-54.4-11.402l27.942-48.397h52.915l27.942 48.397c-16.661 7.325-35.061 11.402-54.399 11.402zm-134.791-120.625h55.895l26.458 45.827-27.919 48.357c-29.7-21.917-50.173-55.641-54.434-94.184zm54.434-124.184 27.919 48.357-26.458 45.827h-55.895c4.261-38.543 24.734-72.267 54.434-94.184zm215.149 94.184h-55.896l-26.458-45.826 27.919-48.358c29.701 21.917 50.174 55.641 54.435 94.184zm-108.334 60.826h-52.916l-26.457-45.826 26.458-45.826h52.916l26.457 45.826zm0-121.652h-52.916l-27.942-48.397c16.662-7.325 35.062-11.402 54.4-11.402s37.738 4.077 54.4 11.402zm111.958-83.98c5.897-5.898 15.492-5.898 21.39 0l10.695 10.695-43.236 43.237c-6.468-7.761-13.629-14.923-21.39-21.39zm-170.527-34.083c0-17.706 14.405-32.111 32.111-32.111s32.111 14.405 32.111 32.111v31.399c-10.392-2.05-21.127-3.135-32.111-3.135s-21.719 1.085-32.111 3.135zm-138.39 44.778 10.695-10.695c5.897-5.896 15.493-5.897 21.39 0l32.542 32.542c-7.761 6.468-14.923 13.629-21.39 21.39zm21.391 319.612-10.695-10.695c-5.017-4.956-6.394-15.012 0-21.39l32.542-32.542c6.468 7.761 13.629 14.923 21.391 21.391zm149.13 36.361c-8.14-12.128-17.731-27.966-24.303-43.022 7.928 1.17 16.035 1.785 24.284 1.785 8.283 0 16.423-.619 24.384-1.799-6.532 15.007-16.113 30.798-24.365 43.036zm159.787-47.056-10.695 10.695-43.237-43.237c7.761-6.467 14.923-13.629 21.39-21.39l32.542 32.542c5.897 5.897 5.897 15.493 0 21.39z"/></svg>