<svg id="Capa_1" enable-background="new 0 0 512 512" height="512" viewBox="0 0 512 512" width="512" xmlns="http://www.w3.org/2000/svg"><g><path d="m180.753 241h30v30h-30z"/><path d="m301.253 241h30v30h-30z"/><path d="m497.313 421.422-12.839-151.271c-2.815-33.167-12.712-64.882-28.739-93.275 23.547-66.329.764-133.102-50.816-176.876l-64.722 76.232c-26.545-10.478-55.045-15.982-84.194-15.982s-57.65 5.504-84.194 15.982l-64.722-76.232c-53.718 45.465-73.401 112.789-50.815 176.876-16.027 28.393-25.924 60.108-28.739 93.275l-12.846 151.352c72.444-1.345 114.096 14.225 184.814 60.476 12.594 18.602 33.911 30.021 56.502 30.021 22.539 0 43.811-11.366 56.417-29.892 59.387-37.203 98.02-62.207 184.893-60.686zm-90.735-377.023c22.828 28.066 32.453 64.666 26.786 99.8-17.195-21.12-40.608-40.992-65.13-54.637zm-301.149 0 38.344 45.163c-23.99 13.442-47.034 32.482-65.13 54.637-5.667-35.134 3.957-71.734 26.786-99.8zm165.574 434.489v-60.357l28.828-21.172-17.758-24.18-26.07 19.147-26.07-19.147-17.758 24.18 28.828 21.172v60.357c-7.29-3.127-13.583-8.473-17.762-15.438l-51.081-85.134c-14.77-24.616-39.946-41.306-67.908-45.754v-.188c0-17.231 14.019-31.25 31.25-31.25h15v-45.124c0-24.951 20.299-45.25 45.25-45.25s45.25 20.299 45.25 45.25h30c0-24.951 20.299-45.25 45.25-45.25s45.25 20.299 45.25 45.25v45.125h15c17.231 0 31.25 14.019 31.25 31.25v.188c-27.961 4.449-53.138 21.138-67.908 45.754l-51.081 85.134c-4.177 6.964-10.47 12.31-17.76 15.437zm74.501-51.693 20.066-33.443c11.982-19.971 33.894-32.376 57.183-32.376h15v-29c0-28.599-19.705-52.684-46.25-59.392v-16.984c0-41.493-33.757-75.25-75.25-75.25-24.619 0-46.513 11.882-60.25 30.214-13.737-18.332-35.631-30.214-60.25-30.214-41.493 0-75.25 33.757-75.25 75.25v16.983c-26.545 6.708-46.25 30.793-46.25 59.392v29h15c23.29 0 45.201 12.406 57.183 32.376l20.062 33.437c-38.811-20.816-74.466-32.542-119.211-35.057l10.138-119.443c6.73-100.631 97.668-184.15 198.578-182.438 105.909.056 190.182 81.892 198.578 182.438l10.143 119.5c-49.861 2.906-85.089 16.299-119.22 35.007z"/></g></svg>